<svg width="256" height="256" viewBox="0 0 256 256" fill="none" xmlns="http://www.w3.org/2000/svg">
<g clip-path="url(#clip0_1_34)">
<path d="M196 0H60C26.8629 0 0 26.8629 0 60V196C0 229.137 26.8629 256 60 256H196C229.137 256 256 229.137 256 196V60C256 26.8629 229.137 0 196 0Z" fill="#F4F2ED"/>
<path d="M120.065 38.3111L38.297 120.063C33.901 124.458 33.901 131.557 38.297 135.952L120.065 217.704C124.461 222.099 131.562 222.099 135.958 217.704L170.242 183.426C174.179 179.49 174.179 173.108 170.242 169.172C166.305 165.236 159.922 165.236 155.985 169.172L129.994 195.158C128.9 196.252 127.24 196.252 126.145 195.158L60.8476 129.873C59.7534 128.779 59.7534 127.119 60.8476 126.025L126.145 60.7403C127.24 59.6464 128.9 59.6464 129.994 60.7403L155.985 86.7257C159.922 90.6618 166.305 90.6618 170.242 86.7257C174.179 82.7895 174.179 76.4078 170.242 72.4717L135.961 38.198C131.547 33.8981 124.444 33.9329 120.065 38.3111Z" fill="url(#paint0_linear_1_34)"/>
<path d="M120.065 38.3111L38.297 120.063C33.901 124.458 33.901 131.557 38.297 135.952L120.065 217.704C124.461 222.099 131.562 222.099 135.958 217.704L170.242 183.426C174.179 179.49 174.179 173.108 170.242 169.172C166.305 165.236 159.922 165.236 155.985 169.172L129.994 195.158C128.9 196.252 127.24 196.252 126.145 195.158L60.8476 129.873C59.7534 128.779 59.7534 127.119 60.8476 126.025L126.145 60.7403C128.87 58.3902 133.315 53.63 139.843 52.5166C144.694 51.6892 149.998 53.5103 155.754 57.9799C151.906 54.1323 145.308 47.5383 135.961 38.198C131.547 33.8981 124.444 33.9329 120.065 38.3111Z" fill="url(#paint1_linear_1_34)"/>
<path d="M178.156 161.569C182.093 165.506 188.476 165.506 192.413 161.569L217.703 136.285C222.099 131.89 222.099 124.791 217.703 120.396L192.193 94.9816C188.247 91.0501 181.862 91.0558 177.923 94.9942C173.986 98.9304 173.986 105.312 177.923 109.248L195.152 126.475C196.247 127.568 196.247 129.229 195.152 130.323L178.156 147.315C174.219 151.251 174.219 157.633 178.156 161.569Z" fill="url(#paint2_linear_1_34)"/>
<path d="M128.42 150.489C140.613 150.489 150.498 140.607 150.498 128.416C150.498 116.226 140.613 106.343 128.42 106.343C116.227 106.343 106.343 116.226 106.343 128.416C106.343 140.607 116.227 150.489 128.42 150.489Z" fill="url(#paint3_linear_1_34)"/>
</g>
<defs>
<linearGradient id="paint0_linear_1_34" x1="8617.21" y1="35.0005" x2="16390.2" y2="4778.9" gradientUnits="userSpaceOnUse">
<stop stop-color="#4285EB"/>
<stop offset="1" stop-color="#2EC7FF"/>
</linearGradient>
<linearGradient id="paint1_linear_1_34" x1="9659.44" y1="34.9999" x2="5817.01" y2="19881.4" gradientUnits="userSpaceOnUse">
<stop stop-color="#29CDFF"/>
<stop offset="0.378601" stop-color="#148EFF"/>
<stop offset="1" stop-color="#0A60FF"/>
</linearGradient>
<linearGradient id="paint2_linear_1_34" x1="3382.85" y1="-848.408" x2="-1615.18" y2="6963.25" gradientUnits="userSpaceOnUse">
<stop stop-color="#FA816E"/>
<stop offset="0.414726" stop-color="#F74A5C"/>
<stop offset="1" stop-color="#F51D2C"/>
</linearGradient>
<linearGradient id="paint3_linear_1_34" x1="3114.53" y1="-1469.25" x2="1451.06" y2="5180.76" gradientUnits="userSpaceOnUse">
<stop stop-color="#FA8E7D"/>
<stop offset="0.512635" stop-color="#F74A5C"/>
<stop offset="1" stop-color="#F51D2C"/>
</linearGradient>
<clipPath id="clip0_1_34">
<rect width="256" height="256" fill="white"/>
</clipPath>
</defs>
</svg>
