<svg width="256" height="256" viewBox="0 0 256 256" fill="none" xmlns="http://www.w3.org/2000/svg">
<g clip-path="url(#clip0_5_10)">
<path d="M196 0H60C26.8629 0 0 26.8629 0 60V196C0 229.137 26.8629 256 60 256H196C229.137 256 256 229.137 256 196V60C256 26.8629 229.137 0 196 0Z" fill="#151618"/>
<path d="M92.5 77C94.5394 78.476 96.318 80.248 98.0866 82.0298C98.3578 82.3012 98.6292 82.5725 98.9006 82.8436C99.6288 83.5717 100.356 84.3013 101.082 85.0312C101.844 85.7968 102.608 86.561 103.372 87.3254C104.814 88.7693 106.255 90.2144 107.696 91.6601C109.338 93.3074 110.981 94.9533 112.624 96.5991C116.001 99.9811 119.376 103.365 122.75 106.75C122.29 107.742 121.644 108.432 120.878 109.199C120.738 109.341 120.598 109.482 120.454 109.629C119.992 110.097 119.529 110.563 119.064 111.028C118.742 111.353 118.42 111.677 118.099 112.001C117.424 112.68 116.748 113.357 116.072 114.034C115.204 114.903 114.341 115.777 113.478 116.651C112.815 117.321 112.149 117.989 111.482 118.656C111.162 118.977 110.844 119.299 110.526 119.622C110.082 120.072 109.635 120.518 109.187 120.963C109.055 121.098 108.924 121.233 108.789 121.372C108.417 121.736 108.417 121.736 107.75 122.25C106.894 122.172 106.473 121.816 105.88 121.22C105.712 121.054 105.545 120.887 105.372 120.716C105.191 120.532 105.01 120.348 104.823 120.159C104.631 119.966 104.438 119.773 104.239 119.575C103.602 118.937 102.967 118.296 102.332 117.655C101.891 117.213 101.449 116.77 101.008 116.328C99.9645 115.282 98.9227 114.234 97.8817 113.186C96.5801 111.875 95.2758 110.567 93.9717 109.258C91.6457 106.924 89.322 104.588 87 102.25C85.5439 103.459 84.2062 104.76 82.8712 106.1C82.6393 106.332 82.4074 106.564 82.1684 106.803C81.5373 107.434 80.907 108.066 80.2768 108.698C79.6162 109.36 78.955 110.021 78.2939 110.683C77.0441 111.933 75.795 113.184 74.5461 114.436C73.1234 115.861 71.7 117.286 70.2764 118.711C67.3502 121.64 64.4248 124.57 61.5 127.5C62.5758 128.786 63.7034 129.988 64.8915 131.17C65.1661 131.445 65.1661 131.445 65.4463 131.725C66.0463 132.325 66.6472 132.924 67.2481 133.522C67.6663 133.94 68.0846 134.358 68.5028 134.776C69.5996 135.872 70.6971 136.967 71.7948 138.062C72.9164 139.181 74.0373 140.301 75.1582 141.42C77.3548 143.614 79.5521 145.807 81.75 148C81.3929 149.166 80.9158 150.237 80.3671 151.323C80.2792 151.498 80.1914 151.674 80.1008 151.855C79.8123 152.432 79.5224 153.008 79.2324 153.584C79.0313 153.985 78.8302 154.387 78.6292 154.788C78.1016 155.842 77.5727 156.894 77.0436 157.947C76.5033 159.023 75.9641 160.099 75.4248 161.175C74.3677 163.284 73.3092 165.392 72.25 167.5C73.2454 166.736 74.1382 165.896 75.0212 165.008C75.1704 164.858 75.3197 164.709 75.4735 164.555C75.9744 164.054 76.4743 163.553 76.9743 163.051C77.3365 162.688 77.6988 162.325 78.0612 161.963C79.0574 160.966 80.0529 159.968 81.0482 158.97C82.1216 157.894 83.1957 156.819 84.2697 155.743C86.0102 154 87.7505 152.257 89.4904 150.514C92.4281 147.57 95.367 144.628 98.3063 141.686C99.4376 140.553 100.569 139.421 101.7 138.289C101.826 138.163 101.951 138.037 102.081 137.907C105.072 134.913 108.064 131.918 111.055 128.923C111.185 128.792 111.316 128.661 111.451 128.526C114.504 125.469 117.556 122.413 120.608 119.355C120.739 119.224 120.87 119.092 121.005 118.957C122.063 117.897 123.121 116.838 124.178 115.778C128.541 111.408 132.904 107.038 137.269 102.67C137.886 102.053 138.503 101.436 139.119 100.819C139.241 100.698 139.362 100.576 139.487 100.451C141.439 98.498 143.389 96.5437 145.339 94.5888C147.299 92.6232 149.261 90.659 151.224 88.6962C152.287 87.6331 153.349 86.5695 154.41 85.5042C155.381 84.5284 156.355 83.5544 157.33 82.5818C157.681 82.2301 158.032 81.8779 158.383 81.5249C161.532 78.354 164.32 75.7143 169.016 75.6719C173.138 75.6679 175.491 77.4571 178.316 80.2676C178.984 80.9366 179.648 81.6087 180.313 82.2813C180.653 82.6241 180.993 82.9669 181.334 83.3096C182.084 84.0642 182.832 84.82 183.58 85.5767C184.605 86.6094 185.636 87.6344 186.67 88.658C186.956 88.9415 187.242 89.225 187.528 89.5085C187.679 89.6586 187.831 89.8087 187.987 89.9633C191.483 93.4288 194.975 96.8993 198.463 100.373C200.479 102.379 202.496 104.384 204.517 106.385C206.283 108.134 208.047 109.886 209.806 111.642C210.736 112.569 211.668 113.495 212.603 114.418C213.484 115.287 214.36 116.16 215.234 117.036C215.553 117.355 215.874 117.672 216.197 117.988C218.671 120.413 220.984 123.118 221.073 126.764C221.111 131.361 219.363 134.171 216.21 137.385C215.486 138.117 214.756 138.844 214.026 139.571C213.623 139.975 213.221 140.379 212.818 140.783C211.73 141.874 210.64 142.963 209.55 144.051C208.406 145.193 207.264 146.337 206.121 147.481C204.08 149.523 202.038 151.563 199.994 153.603C198.145 155.449 196.298 157.296 194.453 159.145C192.304 161.298 190.154 163.45 188.001 165.6C186.864 166.736 185.728 167.872 184.593 169.01C183.525 170.079 182.456 171.147 181.385 172.213C180.994 172.604 180.603 172.995 180.213 173.387C174.059 179.564 174.059 179.564 169.234 179.609C169.025 179.612 168.815 179.614 168.599 179.617C165.894 179.579 163.468 178.564 161.45 176.758C158.876 174.052 158.109 171.163 158.183 167.51C158.38 163.341 161.751 160.388 164.529 157.636C164.857 157.308 165.185 156.98 165.513 156.652C166.396 155.768 167.281 154.887 168.167 154.007C169.095 153.084 170.021 152.158 170.947 151.233C172.697 149.485 174.45 147.739 176.203 145.993C178.2 144.004 180.195 142.013 182.19 140.022C186.291 135.929 190.395 131.839 194.5 127.75C193.424 126.464 192.297 125.262 191.109 124.08C190.925 123.897 190.742 123.714 190.554 123.525C189.954 122.925 189.353 122.326 188.752 121.728C188.334 121.31 187.915 120.892 187.497 120.474C186.4 119.378 185.303 118.283 184.205 117.188C183.084 116.069 181.963 114.949 180.842 113.83C178.645 111.636 176.448 109.443 174.25 107.25C174.607 106.084 175.084 105.013 175.633 103.927C175.721 103.752 175.809 103.576 175.899 103.395C176.188 102.818 176.478 102.242 176.768 101.666C176.969 101.265 177.17 100.863 177.371 100.462C177.898 99.4084 178.427 98.3556 178.956 97.3029C179.497 96.2274 180.036 95.1513 180.575 94.0752C181.632 91.9662 182.691 89.8579 183.75 87.75C183.213 87.75 182.873 88.3474 182.513 88.7066C182.371 88.8493 182.229 88.992 182.083 89.139C181.858 89.3642 181.858 89.3642 181.628 89.594C181.118 90.1042 180.609 90.6154 180.1 91.1265C179.734 91.4934 179.367 91.8603 179.001 92.2272C178.201 93.0285 177.401 93.8302 176.601 94.6322C175.301 95.9369 173.999 97.2407 172.698 98.5445C170.931 100.315 169.164 102.085 167.398 103.856C164.415 106.846 161.43 109.835 158.446 112.823C157.811 113.459 157.176 114.094 156.541 114.73C156.351 114.92 156.351 114.92 156.157 115.114C155.901 115.371 155.644 115.628 155.388 115.885C155.13 116.142 154.873 116.4 154.615 116.658C151.577 119.7 148.539 122.743 145.5 125.786C145.368 125.919 145.235 126.052 145.098 126.189C140.789 130.505 136.481 134.821 132.174 139.139C127.747 143.577 123.318 148.013 118.887 152.447C118.261 153.073 117.635 153.7 117.008 154.327C116.885 154.45 116.762 154.573 116.635 154.7C114.653 156.684 112.674 158.669 110.694 160.655C108.704 162.652 106.711 164.648 104.717 166.642C103.637 167.722 102.557 168.803 101.48 169.886C100.493 170.878 99.5045 171.867 98.5136 172.855C98.1562 173.213 97.7996 173.571 97.444 173.929C94.3678 177.033 91.5602 179.546 87.0156 179.594C81.9096 179.54 79.1942 176.554 75.7969 173.094C75.4457 172.739 75.0943 172.384 74.7427 172.029C73.9694 171.249 73.1978 170.467 72.4277 169.683C71.4021 168.645 70.366 167.618 69.3302 166.59C69.0442 166.306 68.7581 166.023 68.4721 165.739C68.2449 165.513 68.2449 165.513 68.0131 165.283C64.5173 161.814 61.0258 158.34 57.5367 154.864C55.5208 152.856 53.5035 150.849 51.4829 148.846C49.717 147.095 47.9538 145.342 46.1937 143.585C45.2634 142.657 44.3319 141.73 43.3972 140.806C42.5169 139.936 41.6402 139.062 40.7661 138.186C40.4465 137.867 40.1256 137.549 39.8032 137.232C37.1515 134.626 35.0212 132.066 34.9268 128.18C34.8948 124.382 35.9923 122.057 38.6221 119.314C38.9325 119 39.2442 118.687 39.5571 118.376C39.7304 118.202 39.9037 118.027 40.0822 117.848C40.6571 117.27 41.2337 116.693 41.8104 116.117C42.2254 115.7 42.6403 115.284 43.0551 114.867C44.1779 113.74 45.3023 112.614 46.4271 111.489C47.2488 110.667 48.0699 109.845 48.891 109.022C51.1005 106.808 53.3112 104.596 55.523 102.384C55.6483 102.259 55.7736 102.134 55.9027 102.005C56.0281 101.879 56.1536 101.754 56.2828 101.625C58.3168 99.5908 60.3483 97.5546 62.3786 95.5172C64.4679 93.4207 66.559 91.3262 68.6521 89.2335C69.8253 88.0604 70.9978 86.8865 72.1683 85.7107C73.2691 84.6051 74.3722 83.5019 75.4772 82.4006C75.8814 81.9969 76.2847 81.5924 76.6871 81.187C81.1271 76.7157 86.2704 73.5844 92.5 77Z" fill="#FEFEFE"/>
<path d="M92.5 77C94.5394 78.476 96.318 80.248 98.0866 82.0298C98.3578 82.3012 98.6292 82.5725 98.9006 82.8436C99.6288 83.5717 100.356 84.3013 101.082 85.0312C101.844 85.7968 102.608 86.561 103.372 87.3254C104.814 88.7693 106.255 90.2144 107.696 91.6601C109.338 93.3074 110.981 94.9533 112.624 96.5991C116.001 99.9811 119.376 103.365 122.75 106.75C122.29 107.742 121.644 108.432 120.878 109.199C120.738 109.341 120.598 109.482 120.454 109.629C119.992 110.097 119.529 110.563 119.064 111.028C118.742 111.353 118.42 111.677 118.099 112.001C117.424 112.68 116.748 113.357 116.072 114.034C115.204 114.903 114.341 115.777 113.478 116.651C112.815 117.321 112.149 117.989 111.482 118.656C111.162 118.977 110.844 119.299 110.526 119.622C110.082 120.072 109.635 120.518 109.187 120.963C109.055 121.098 108.924 121.233 108.789 121.372C108.417 121.736 108.417 121.736 107.75 122.25C106.894 122.172 106.473 121.816 105.88 121.22C105.712 121.054 105.545 120.887 105.372 120.716C105.191 120.532 105.01 120.348 104.823 120.159C104.631 119.966 104.438 119.773 104.239 119.575C103.602 118.937 102.967 118.296 102.332 117.655C101.891 117.213 101.449 116.77 101.008 116.328C99.9645 115.282 98.9227 114.234 97.8817 113.186C96.5801 111.875 95.2758 110.567 93.9717 109.258C91.6457 106.924 89.322 104.588 87 102.25C85.5439 103.459 84.2062 104.76 82.8712 106.1C82.6393 106.332 82.4074 106.564 82.1684 106.803C81.5373 107.434 80.907 108.066 80.2768 108.698C79.6162 109.36 78.955 110.021 78.2939 110.683C77.0441 111.933 75.795 113.184 74.5461 114.436C73.1234 115.861 71.7 117.286 70.2764 118.711C67.3502 121.64 64.4248 124.57 61.5 127.5C62.5758 128.786 63.7034 129.988 64.8915 131.17C65.1661 131.445 65.1661 131.445 65.4463 131.725C66.0463 132.325 66.6472 132.924 67.2481 133.522C67.6663 133.94 68.0846 134.358 68.5028 134.776C69.5996 135.872 70.6971 136.967 71.7948 138.062C72.9164 139.181 74.0373 140.301 75.1582 141.42C77.3548 143.614 79.5521 145.807 81.75 148C81.3929 149.166 80.9158 150.237 80.3671 151.323C80.2792 151.498 80.1914 151.674 80.1008 151.855C79.8123 152.432 79.5224 153.008 79.2324 153.584C79.0313 153.985 78.8302 154.387 78.6292 154.788C78.1016 155.842 77.5727 156.894 77.0436 157.947C76.5033 159.023 75.9641 160.099 75.4248 161.175C74.3677 163.284 73.3092 165.392 72.25 167.5C73.2475 166.734 74.1426 165.892 75.0281 165.003C75.1782 164.853 75.3282 164.703 75.4827 164.549C75.9861 164.046 76.4886 163.543 76.9911 163.039C77.3552 162.675 77.7192 162.311 78.0833 161.947C79.0844 160.947 80.0847 159.946 81.0849 158.944C82.1633 157.865 83.2425 156.786 84.3215 155.707C86.1912 153.837 88.0605 151.967 89.9294 150.097C91.8895 148.135 93.8499 146.174 95.8106 144.213C95.9325 144.091 96.0544 143.969 96.1801 143.844C96.7992 143.224 97.4183 142.605 98.0375 141.986C102.423 137.6 106.808 133.214 111.192 128.827C115.451 124.565 119.711 120.304 123.971 116.043C124.168 115.846 124.168 115.846 124.369 115.645C125.688 114.326 127.006 113.007 128.325 111.688C131.011 109.001 133.698 106.314 136.384 103.627C136.508 103.503 136.631 103.38 136.758 103.252C145.006 95.0021 153.253 86.7511 161.5 78.5C161.665 78.5825 161.83 78.665 162 78.75C132.218 108.533 102.435 138.315 71.75 169C71.3375 168.588 70.925 168.175 70.5 167.75C70.0301 167.283 69.56 166.816 69.0897 166.35C68.8058 166.068 68.5219 165.786 68.238 165.505C68.0877 165.355 67.9373 165.206 67.7825 165.053C64.3128 161.61 60.8474 158.162 57.3844 154.712C55.3837 152.719 53.3816 150.728 51.3761 148.739C49.6234 147.002 47.8733 145.261 46.1264 143.518C45.2032 142.596 44.2787 141.676 43.3509 140.759C42.4771 139.896 41.6071 139.029 40.7395 138.159C40.4223 137.842 40.1038 137.527 39.7839 137.213C37.1391 134.613 35.0209 132.055 34.9268 128.18C34.8948 124.382 35.9923 122.057 38.6221 119.314C38.9325 119 39.2442 118.687 39.5571 118.376C39.7304 118.202 39.9037 118.027 40.0822 117.848C40.6571 117.27 41.2337 116.693 41.8104 116.117C42.2254 115.7 42.6403 115.284 43.0551 114.867C44.1779 113.74 45.3023 112.614 46.4271 111.489C47.2488 110.667 48.0699 109.845 48.891 109.022C51.1005 106.808 53.3112 104.596 55.523 102.384C55.6483 102.259 55.7736 102.134 55.9027 102.005C56.0281 101.879 56.1536 101.754 56.2828 101.625C58.3168 99.5908 60.3483 97.5546 62.3786 95.5172C64.4679 93.4207 66.559 91.3262 68.6521 89.2335C69.8253 88.0604 70.9978 86.8865 72.1683 85.7107C73.2691 84.6051 74.3722 83.5019 75.4772 82.4006C75.8814 81.9969 76.2847 81.5924 76.6871 81.187C81.1271 76.7157 86.2704 73.5844 92.5 77Z" fill="#FEFEFE"/>
<path d="M184.25 86.25C184.427 86.4274 184.604 86.6048 184.787 86.7876C185.493 87.4933 186.201 88.1962 186.91 88.8986C187.194 89.1799 187.478 89.4612 187.762 89.7426C187.912 89.8916 188.063 90.0405 188.217 90.194C191.688 93.6333 195.153 97.0777 198.616 100.525C200.616 102.516 202.618 104.506 204.624 106.492C206.377 108.228 208.127 109.966 209.874 111.709C210.796 112.63 211.721 113.549 212.649 114.464C213.523 115.326 214.393 116.193 215.26 117.063C215.577 117.379 215.896 117.694 216.216 118.008C218.684 120.425 220.985 123.13 221.073 126.764C221.111 131.361 219.363 134.171 216.21 137.385C215.486 138.117 214.756 138.844 214.026 139.571C213.623 139.975 213.221 140.379 212.818 140.783C211.73 141.874 210.64 142.963 209.55 144.051C208.406 145.193 207.264 146.337 206.121 147.481C204.08 149.523 202.038 151.563 199.994 153.603C198.145 155.449 196.298 157.296 194.453 159.145C192.304 161.298 190.153 163.45 188.001 165.6C186.864 166.736 185.728 167.872 184.592 169.01C183.525 170.079 182.456 171.147 181.385 172.213C180.994 172.604 180.603 172.995 180.213 173.387C174.059 179.564 174.059 179.564 169.234 179.609C169.025 179.612 168.815 179.614 168.599 179.617C165.894 179.579 163.468 178.564 161.45 176.758C158.876 174.052 158.109 171.163 158.183 167.51C158.38 163.341 161.751 160.388 164.529 157.636C164.857 157.308 165.185 156.98 165.513 156.652C166.396 155.768 167.281 154.887 168.167 154.007C169.095 153.084 170.021 152.158 170.947 151.233C172.697 149.485 174.45 147.739 176.203 145.993C178.2 144.004 180.195 142.013 182.19 140.022C186.291 135.929 190.395 131.839 194.5 127.75C193.424 126.464 192.297 125.262 191.108 124.08C190.834 123.805 190.834 123.805 190.554 123.525C189.954 122.925 189.353 122.326 188.752 121.728C188.334 121.31 187.915 120.892 187.497 120.474C186.4 119.378 185.303 118.283 184.205 117.188C183.084 116.069 181.963 114.949 180.842 113.83C178.645 111.636 176.448 109.443 174.25 107.25C174.605 106.092 175.078 105.028 175.625 103.951C175.756 103.691 175.756 103.691 175.889 103.426C176.077 103.052 176.265 102.678 176.454 102.304C176.754 101.711 177.052 101.118 177.35 100.525C178.089 99.0527 178.831 97.5812 179.573 96.1097C180.2 94.8646 180.827 93.6192 181.452 92.3732C181.745 91.7903 182.04 91.2081 182.334 90.6259C182.514 90.2669 182.695 89.9079 182.875 89.5488C182.997 89.308 182.997 89.308 183.122 89.0623C183.582 88.1438 183.949 87.2318 184.25 86.25Z" fill="#979798"/>
<path d="M161.5 78.5C161.665 78.5825 161.83 78.665 162 78.75C132.218 108.532 102.435 138.315 71.75 169C71.585 168.835 71.42 168.67 71.25 168.5C71.4239 168.344 71.5979 168.187 71.7771 168.027C73.89 166.116 75.9115 164.123 77.9231 162.107C78.2855 161.745 78.648 161.382 79.0105 161.02C79.9991 160.032 80.9869 159.043 81.9746 158.054C83.0426 156.985 84.1113 155.917 85.18 154.849C87.0289 153 88.8774 151.15 90.7255 149.301C92.6626 147.362 94.5999 145.424 96.5375 143.486C96.6583 143.365 96.779 143.245 96.9034 143.12C97.5167 142.507 98.1301 141.893 98.7434 141.28C103.081 136.942 107.417 132.604 111.754 128.265C115.965 124.052 120.176 119.839 124.388 115.626C124.583 115.431 124.583 115.431 124.781 115.232C126.087 113.927 127.392 112.621 128.697 111.316C131.356 108.656 134.014 105.997 136.673 103.338C136.795 103.216 136.917 103.093 137.043 102.968C145.196 94.8123 153.348 86.6562 161.5 78.5Z" fill="#D1D1D2"/>
</g>
<defs>
<clipPath id="clip0_5_10">
<rect width="256" height="256" fill="white"/>
</clipPath>
</defs>
</svg>
