<svg width="256" height="256" viewBox="0 0 256 256" fill="none" xmlns="http://www.w3.org/2000/svg">
<g clip-path="url(#clip0_16_87)">
<path d="M196 0H60C26.8629 0 0 26.8629 0 60V196C0 229.137 26.8629 256 60 256H196C229.137 256 256 229.137 256 196V60C256 26.8629 229.137 0 196 0Z" fill="#F4F2ED"/>
<path d="M120.006 230.887C111.67 228.646 105.575 222.984 98.9508 211.326C95.698 205.596 93.4412 202.388 90.5867 199.419L86.677 195.358L72.8965 195.345C59.1583 195.333 56.6853 195.097 51.146 193.291C44.3161 191.068 37.1175 183.583 34.3966 175.877C32.6356 170.889 32.5254 163.24 34.1487 158.428C35.0705 155.692 41.8622 143.381 48.7959 131.875C49.6923 130.39 50.4234 128.923 50.4234 128.614C50.4234 128.305 46.9798 122.113 42.7734 114.857C38.567 107.598 34.6572 100.155 34.083 98.3174C32.6229 93.6294 32.6738 86.0489 34.1953 81.5366C37.1535 72.7598 44.3818 65.6515 53.2248 62.8184C55.808 61.9926 59.0566 61.7935 73.1317 61.5966L89.951 61.3637L95.4861 51.7484C105.501 34.3514 108.038 31.279 115.181 27.8847C126.289 22.6038 139.773 24.7784 148.159 33.2037C150.998 36.0581 152.88 38.9526 161.666 53.9886L165.976 61.3637L182.91 61.5754C198.725 61.7766 200.079 61.8719 203.393 63.0471C207.955 64.6648 210.873 66.526 214.465 70.1151C220.068 75.7136 222.713 82.1168 222.689 90.0339C222.67 96.9135 221.482 99.914 213.124 114.228C209.081 121.152 205.616 127.216 205.427 127.708C205.215 128.258 206.589 131.157 208.987 135.229C217.845 150.273 220.96 156.022 221.833 158.944C223.202 163.524 223.058 170.679 221.507 175.287C219.049 182.583 212.776 189.626 206.114 192.571C201.036 194.816 196.669 195.339 182.99 195.349L170.062 195.36L164.488 201.13C160.047 205.729 158.182 208.202 155.3 213.316C149.517 223.577 142.933 229.231 134.511 231.17C130.956 231.99 123.566 231.844 120.006 230.887ZM105.592 142.695C108.029 139.152 110.186 136.063 110.388 135.832C110.589 135.599 111.947 136.167 113.407 137.092L116.063 138.773H140.644L143.456 137.115L146.268 135.46L151.051 142.578L155.832 149.697L155.849 174.349L155.866 199L157.247 196.758C158.273 195.093 158.629 193.725 158.633 191.436L158.64 188.356L161.939 185.688C164.088 183.955 166.044 181.671 167.544 179.149C168.811 177.017 169.848 175.102 169.848 174.893C169.848 174.463 167.023 176.841 162.746 180.864C161.153 182.367 159.576 183.593 159.241 183.593C158.818 183.593 158.635 178.096 158.635 165.405V147.216L154.647 141.562C152.454 138.454 150.75 135.822 150.862 135.712C150.975 135.604 153.412 136.042 156.281 136.686L161.498 137.854L168.057 131.39L174.613 124.923L181.013 122.605C184.535 121.328 187.502 120.371 187.608 120.476C187.714 120.582 187.523 125.713 187.184 131.877C186.845 138.039 186.654 143.69 186.76 144.429C186.908 145.477 188.068 143.857 191.994 137.124C194.77 132.366 197.029 128.366 197.012 128.235C196.932 127.54 190.25 116.377 189.913 116.371C189.693 116.367 178.216 120.523 164.412 125.607C139.958 134.615 139.199 134.852 134.956 134.852H130.6V68.184H126.116V134.852H122.394C119.173 134.852 117.243 134.322 107.957 130.896C102.425 128.855 96.8908 126.82 91.3538 124.792C72.7057 117.978 67.8043 116.028 67.8043 115.422C67.8043 115.052 67.5966 114.622 67.3444 114.465C66.7532 114.101 58.6858 127.869 58.9316 128.821C59.1943 129.855 70.2794 148.812 70.4934 148.598C70.593 148.499 70.2857 142.166 69.8153 134.524C69.3427 126.882 69.0418 120.542 69.1499 120.436C69.2558 120.33 71.0783 120.902 73.1995 121.707C75.3186 122.511 78.19 123.549 79.578 124.015C81.5127 124.665 83.6276 126.376 88.6477 131.347L95.1958 137.833L99.862 136.827C102.428 136.277 104.844 135.705 105.23 135.557C106.58 135.047 105.897 136.381 102.007 141.854L98.082 147.377V165.485C98.082 176.445 97.8722 183.593 97.5522 183.593C97.2619 183.593 94.1087 180.932 90.5443 177.679C86.98 174.429 84.0641 171.886 84.0641 172.03C84.0641 172.174 85.0368 174.014 86.2256 176.121C87.8128 178.937 89.6628 181.065 93.2017 184.152L98.0184 188.356L98.0481 192.277C98.0693 195.225 98.3914 196.789 99.3407 198.583L100.604 200.965L100.883 175.052L101.165 149.138L105.592 142.695ZM81.8242 185.306C81.8242 182.062 81.642 181.664 74.7507 169.758C70.86 163.039 67.3677 157.163 66.9863 156.702C66.6048 156.24 66.1238 155.383 65.914 154.796C65.7063 154.212 63.939 151.061 61.9894 147.794C60.0399 144.529 57.6326 140.404 56.6366 138.634C55.6406 136.863 54.7442 135.413 54.6425 135.413C54.4454 135.413 48.8362 145.03 43.8605 153.898C40.1478 160.52 39.5884 162.537 39.8872 168.246C40.0694 171.765 40.4805 173.516 41.7033 176.017C44.7251 182.185 51.0104 186.95 57.5902 188.057C59.046 188.303 65.0939 188.533 71.0295 188.569L81.8242 188.635V185.306ZM197.907 188.07C202.242 187.248 206.3 185.211 209.176 182.41C213.81 177.895 215.963 172.805 215.93 166.444C215.898 160.549 215.864 160.473 204.063 140.065L201.083 134.913L195.508 144.497C192.439 149.769 189.788 154.481 189.617 154.97C189.445 155.461 188.981 156.24 188.591 156.702C187.955 157.449 185.12 162.239 177.317 175.738C175.029 179.693 174.895 180.163 174.895 184.279V188.635H184.912C190.422 188.635 196.269 188.381 197.907 188.07ZM60.3323 112.007L65.007 104.007L63.0426 96.2084C61.9619 91.9185 61.0761 87.9906 61.0761 87.4782C61.0761 86.6439 61.7203 86.5889 67.3847 86.9488C70.8536 87.169 73.8946 87.385 74.1446 87.4295C74.5345 87.5015 78.0395 81.7865 84.168 71.0849L85.8844 68.0824L71.6589 68.3343C55.9182 68.6096 53.7588 68.9886 49.1519 72.2664C39.3235 79.2625 36.9141 92.001 43.424 102.567C44.3437 104.062 45.4753 105.976 45.9372 106.823C46.4013 107.666 48.5395 111.412 50.6925 115.141C53.8584 120.625 54.7082 121.741 55.1299 120.964C55.4181 120.436 57.7597 116.407 60.3323 112.007ZM207.737 110.201C211.064 104.5 214.26 98.599 214.836 97.0872C215.938 94.2011 216.277 88.3527 215.542 84.9499C214.389 79.6352 209.426 73.4268 204.219 70.7906C200.034 68.671 195.171 68.1311 181.871 68.3068L170.064 68.4635L175.311 77.4267C178.195 82.3582 180.733 86.6799 180.947 87.0335C181.242 87.5121 183.321 87.5311 189.074 87.1034C193.327 86.7879 196.908 86.6312 197.031 86.7561C197.156 86.8789 196.26 90.9444 195.039 95.787C193.821 100.632 192.778 105.163 192.723 105.858C192.609 107.297 200.733 121.603 201.306 120.976C201.513 120.75 204.408 115.901 207.737 110.201ZM103.414 88.9202C103.253 88.6597 103.365 88.3633 103.662 88.2595C103.96 88.1558 106.092 83.6604 108.398 78.2673C112.297 69.1495 112.509 68.4508 111.439 68.275C110.803 68.1734 110.072 68.3026 109.811 68.5651C109.548 68.8256 107.569 73.0711 105.41 77.9962C101.943 85.9092 101.337 86.9446 100.205 86.8916C99.4997 86.8599 95.5475 86.5042 91.4238 86.1018L83.9243 85.3692L82.9007 86.7201L81.8772 88.0711L92.3625 88.935C102.873 89.8031 103.956 89.801 103.414 88.9202ZM171.939 88.3823C173.664 88.3527 173.719 88.2849 173.111 86.9509C172.759 86.1802 172.034 85.5513 171.5 85.5513C170.081 85.5513 159.212 86.6206 157.167 86.9636C155.503 87.2389 155.357 87.1097 154.168 84.302C153.482 82.6779 152.505 80.7193 151.998 79.9485C151.49 79.1778 151.04 78.1699 150.998 77.7062C150.956 77.2446 150.023 74.9111 148.921 72.5248C147.203 68.7875 146.728 68.184 145.51 68.184H144.098L146.09 72.8043L150.591 83.2856C151.975 86.5105 153.198 89.295 153.31 89.4749C153.42 89.6549 157.252 89.4898 161.82 89.1086C166.389 88.7254 170.943 88.3993 171.939 88.3823ZM156.643 58.7995C149.392 46.2345 145.482 40.0939 143.444 38.0548C139.902 34.5123 135.052 32.3229 129.883 31.9333C120.481 31.2218 112.702 35.4271 107.898 43.8206C105.925 47.2333 103.94 50.6389 101.943 54.0373L97.5904 61.4611H158.18L156.643 58.7995Z" fill="#47C8E8"/>
<path d="M120.006 230.887C111.67 228.646 105.575 222.984 98.9508 211.326C95.698 205.596 93.4412 202.388 90.5867 199.419L86.677 195.358H73.0639C55.5198 195.358 51.6609 194.606 44.9095 189.878C41.5083 187.496 36.9416 182.16 35.6998 179.111C35.2313 177.984 34.7474 176.864 34.2483 175.75C33.6973 174.518 33.2883 171.602 33.1506 167.905C32.9683 163.037 33.1315 161.43 34.0936 158.584C35.062 155.717 41.7562 143.555 48.7959 131.873C49.6923 130.391 50.4234 128.923 50.4234 128.612C50.4234 128.305 46.9798 122.113 42.7734 114.855C38.567 107.596 34.6572 100.153 34.083 98.3175C32.6229 93.6295 32.6738 86.0469 34.1953 81.5346C37.1536 72.7599 44.3818 65.6516 53.2248 62.8164C55.808 61.9906 59.0566 61.7915 73.1317 61.5967L89.951 61.3617L95.4861 51.7485C105.501 34.3494 108.038 31.277 115.181 27.8827C126.158 22.6653 139.599 24.7489 147.951 32.9646C150.356 35.3298 155.147 42.3407 157.563 47.0308C157.997 47.8778 160.064 51.4457 162.157 54.9649L165.961 61.3617L182.901 61.5756C198.727 61.7746 200.079 61.872 203.393 63.0451C207.955 64.6628 210.873 66.524 214.465 70.1131C223.804 79.4447 225.4 93.0557 218.538 104.854C216.044 109.163 213.54 113.467 211.026 117.764C209.445 120.461 207.893 123.175 206.372 125.906L204.993 128.447L208.941 135.151C217.837 150.252 220.96 156.016 221.84 158.942C223.175 163.395 223.007 171.166 221.484 175.469C218.981 182.528 212.874 189.408 206.48 192.372C201.259 194.793 196.961 195.337 182.99 195.347L170.062 195.358L164.488 201.13C160.059 205.717 158.171 208.215 155.291 213.314C149.494 223.575 142.903 229.237 134.509 231.17C130.956 231.988 123.566 231.842 120.006 230.887ZM105.592 142.695C108.029 139.153 110.186 136.063 110.388 135.832C110.589 135.599 111.947 136.167 113.407 137.092L116.063 138.773H140.644L143.456 137.116L146.268 135.46L151.051 142.579L155.832 149.697L155.849 174.349L155.866 199L157.247 196.758C158.273 195.093 158.629 193.725 158.633 191.437L158.64 188.356L161.939 185.688C164.088 183.956 166.044 181.671 167.544 179.149C168.811 177.017 169.848 175.103 169.848 174.893C169.848 174.463 167.023 176.841 162.746 180.864C161.153 182.368 159.576 183.594 159.241 183.594C158.818 183.594 158.635 178.097 158.635 165.405V147.216L154.647 141.562C152.454 138.454 150.75 135.822 150.862 135.712C150.975 135.604 153.412 136.042 156.281 136.686L161.498 137.855L168.057 131.39L174.613 124.923L181.013 122.605C184.535 121.328 187.502 120.371 187.608 120.477C187.714 120.582 187.523 125.713 187.184 131.877C186.845 138.039 186.654 143.69 186.76 144.429C186.908 145.477 188.068 143.857 191.994 137.124C194.77 132.366 197.029 128.366 197.012 128.235C196.932 127.54 190.25 116.377 189.913 116.371C189.693 116.367 178.216 120.523 164.412 125.607C139.958 134.615 139.199 134.852 134.956 134.852H130.6V68.1841H126.116V134.852H122.394C119.173 134.852 117.243 134.323 107.957 130.897C102.425 128.855 96.8908 126.82 91.3538 124.792C72.7057 117.978 67.8043 116.028 67.8043 115.422C67.8043 115.052 67.5966 114.622 67.3444 114.465C66.7532 114.101 58.6858 127.869 58.9316 128.821C59.1943 129.855 70.2794 148.812 70.4934 148.598C70.593 148.499 70.2857 142.166 69.8153 134.524C69.3427 126.882 69.0418 120.542 69.1499 120.436C69.2558 120.331 71.0783 120.902 73.1995 121.707C75.3186 122.511 78.19 123.549 79.578 124.015C81.5127 124.665 83.6276 126.376 88.6477 131.348L95.1958 137.833L99.862 136.828C102.428 136.277 104.844 135.705 105.23 135.557C106.58 135.047 105.897 136.381 102.007 141.854L98.082 147.377V165.485C98.082 176.445 97.8722 183.594 97.5522 183.594C97.2619 183.594 94.1087 180.932 90.5443 177.679C86.98 174.429 84.0641 171.886 84.0641 172.03C84.0641 172.174 85.0368 174.014 86.2256 176.121C87.8128 178.937 89.6628 181.065 93.2017 184.153L98.0184 188.356L98.0481 192.277C98.0693 195.225 98.3914 196.789 99.3407 198.583L100.604 200.965L100.883 175.052L101.165 149.138L105.592 142.695ZM81.8242 185.307C81.8242 182.063 81.642 181.665 74.7507 169.758C70.86 163.039 67.3677 157.164 66.9863 156.702C66.6048 156.24 66.1238 155.383 65.914 154.796C65.7063 154.212 63.939 151.061 61.9894 147.794C60.0399 144.529 57.6326 140.404 56.6366 138.634C55.6406 136.864 54.7442 135.413 54.6425 135.413C54.4454 135.413 48.8362 145.031 43.8605 153.898C40.1478 160.52 39.5884 162.538 39.8872 168.246C40.0694 171.765 40.4805 173.517 41.7033 176.017C44.7251 182.185 51.0104 186.95 57.5902 188.057C59.046 188.303 65.0939 188.534 71.0295 188.57L81.8242 188.635V185.307ZM197.907 188.07C202.242 187.248 206.3 185.211 209.176 182.41C213.81 177.895 215.963 172.805 215.93 166.444C215.898 160.549 215.864 160.473 204.063 140.065L201.083 134.913L195.508 144.497C192.439 149.769 189.788 154.481 189.617 154.97C189.445 155.461 188.981 156.24 188.591 156.702C187.955 157.449 185.12 162.239 177.317 175.738C175.029 179.693 174.895 180.163 174.895 184.28V188.635H184.912C190.422 188.635 196.268 188.381 197.907 188.07ZM60.3323 112.007L65.007 104.007L63.0426 96.2085C61.9619 91.9186 61.0761 87.9907 61.0761 87.4783C61.0761 86.644 61.7203 86.589 67.3847 86.9489C70.8536 87.1692 73.8946 87.3851 74.1446 87.4296C74.5345 87.5016 78.0395 81.7866 84.168 71.085L85.8844 68.0825L71.6589 68.3344C55.9182 68.6097 53.7588 68.9887 49.1519 72.2665C39.3193 79.2647 36.9226 91.9546 43.424 102.588C45.4174 105.832 47.3134 109.133 49.1095 112.49C50.2634 114.599 51.4652 116.682 52.7141 118.736C54.2844 121.29 54.7209 121.686 55.1405 120.928C55.4245 120.419 57.7597 116.407 60.3323 112.007ZM207.737 110.201C211.064 104.5 214.26 98.5991 214.836 97.0873C215.938 94.2012 216.277 88.3528 215.542 84.9501C214.389 79.6353 209.426 73.4269 204.219 70.7907C200.034 68.6711 195.171 68.1312 181.871 68.3069L170.064 68.4636L175.311 77.4268C178.195 82.3583 180.733 86.68 180.947 87.0336C181.242 87.5122 183.321 87.5312 189.074 87.1035C193.327 86.788 196.908 86.6313 197.031 86.7562C197.156 86.8791 196.26 90.9446 195.039 95.7872C193.821 100.632 192.778 105.163 192.723 105.858C192.609 107.298 200.733 121.603 201.306 120.976C201.513 120.75 204.408 115.901 207.737 110.201ZM103.414 88.9203C103.253 88.6598 103.365 88.3634 103.662 88.2596C103.96 88.1559 106.092 83.6605 108.398 78.2674C112.297 69.1497 112.509 68.4509 111.439 68.2752C110.803 68.1735 110.072 68.3027 109.811 68.5652C109.548 68.8257 107.569 73.0712 105.41 77.9964C101.943 85.9093 101.337 86.9447 100.205 86.8918C99.4997 86.86 95.5475 86.5043 91.4238 86.102L83.9243 85.3693L82.9007 86.7203L81.8772 88.0712L92.3625 88.9351C102.873 89.8033 103.956 89.8011 103.414 88.9203ZM171.939 88.3824C173.664 88.3528 173.719 88.285 173.111 86.9511C172.759 86.1803 172.034 85.5514 171.5 85.5514C170.081 85.5514 159.212 86.6207 157.167 86.9638C155.503 87.239 155.357 87.1099 154.168 84.3021C153.482 82.678 152.505 80.7194 151.998 79.9487C151.49 79.1779 151.04 78.17 150.998 77.7063C150.956 77.2447 150.023 74.9112 148.921 72.5249C147.203 68.7876 146.728 68.1841 145.51 68.1841H144.098L146.09 72.8044L150.591 83.2857C151.975 86.5106 153.198 89.2951 153.31 89.475C153.42 89.655 157.252 89.4899 161.82 89.1087C166.389 88.7255 170.943 88.3994 171.939 88.3824ZM156.643 58.7996C149.392 46.2346 145.482 40.094 143.444 38.0549C139.902 34.5124 135.052 32.323 129.883 31.9334C120.481 31.2219 112.702 35.4272 107.898 43.8207C105.925 47.2334 103.94 50.639 101.943 54.0374L97.5904 61.4612H158.18L156.643 58.7996Z" fill="#36C6E7"/>
<path d="M120.006 230.887C111.602 228.629 105.624 223.035 98.6921 210.94C95.1235 204.715 93.0743 201.818 90.2644 199.034L86.556 195.354L72.8348 195.318C55.1508 195.269 51.6268 194.583 44.9092 189.878C41.5081 187.496 36.9414 182.16 35.6996 179.111C35.231 177.984 34.7471 176.864 34.248 175.75C33.6971 174.518 33.2881 171.602 33.1503 167.905C32.9681 163.037 33.1312 161.43 34.0933 158.584C35.0618 155.717 41.756 143.555 48.7957 131.873C49.692 130.39 50.4062 128.876 50.385 128.512C50.3447 127.784 50.082 127.312 41.2305 112.123C37.8653 106.362 34.6485 100.145 34.0806 98.311C32.6227 93.6315 32.6756 86.0468 34.195 81.5366C37.1533 72.7619 44.3816 65.6536 53.2246 62.8183C55.8078 61.9925 59.0564 61.7935 73.1314 61.5987L89.9508 61.3637L95.4858 51.7504C105.501 34.3535 108.037 31.2789 115.181 27.8847C125.333 23.0527 137.453 24.3951 146.16 31.3065C148.644 33.2757 152.721 38.3152 153.789 40.7312C154.128 41.502 154.573 42.2579 154.776 42.4125C154.98 42.5671 155.865 44.0027 156.749 45.6035C157.633 47.2064 159.932 51.1681 161.86 54.4121C163.789 57.6518 165.365 60.5633 165.365 60.883C165.365 61.2641 170.43 61.4611 180.362 61.4611C201.873 61.4611 206.692 62.6257 213.863 69.5751C219.807 75.3346 222.651 81.7208 222.721 89.4728C222.772 95.2492 221.361 100.109 218.055 105.544C216.521 108.064 215.264 110.397 215.264 110.726C215.264 111.054 215.041 111.323 214.77 111.323C214.499 111.323 214.126 111.763 213.944 112.303C213.761 112.841 213.166 114.039 212.617 114.967C212.068 115.894 210.123 119.27 208.292 122.471C205.092 128.065 204.995 128.345 205.813 129.749C221.778 157.176 221.664 156.954 222.558 162.584C224.056 172.019 220.248 181.753 212.443 188.432C205.722 194.183 200.748 195.335 183.179 195.208L170.436 195.119L165.198 200.141C162.316 202.902 159.646 205.793 159.26 206.563C158.875 207.334 157.003 210.61 155.1 213.847C149.351 223.62 142.589 229.309 134.511 231.168C130.958 231.988 123.566 231.844 120.006 230.887ZM105.592 142.695C108.029 139.152 110.186 136.063 110.387 135.832C110.589 135.599 111.947 136.167 113.407 137.092L116.062 138.773H140.644L143.456 137.115L146.268 135.46L151.051 142.578L155.832 149.697L155.848 174.349L155.865 199L157.247 196.758C158.273 195.093 158.629 193.725 158.633 191.436L158.639 188.356L161.939 185.688C164.088 183.955 166.043 181.671 167.544 179.149C168.811 177.017 169.847 175.102 169.847 174.893C169.847 174.463 167.023 176.841 162.746 180.864C161.153 182.367 159.576 183.593 159.241 183.593C158.817 183.593 158.635 178.096 158.635 165.404V147.216L154.647 141.562C152.454 138.454 150.75 135.822 150.862 135.712C150.975 135.604 153.412 136.042 156.281 136.686L161.498 137.854L168.057 131.39L174.613 124.923L181.013 122.604C184.535 121.328 187.502 120.371 187.607 120.476C187.713 120.582 187.523 125.713 187.184 131.877C186.845 138.039 186.654 143.69 186.76 144.429C186.908 145.477 188.067 143.857 191.994 137.124C194.77 132.366 197.029 128.366 197.012 128.235C196.932 127.54 190.25 116.377 189.913 116.371C189.693 116.366 178.216 120.523 164.412 125.607C139.957 134.615 139.199 134.852 134.956 134.852H130.599V68.184H126.115V134.852H122.394C119.173 134.852 117.243 134.322 107.957 130.896C102.425 128.855 96.8905 126.82 91.3536 124.792C72.7055 117.978 67.804 116.028 67.804 115.422C67.804 115.052 67.5963 114.622 67.3442 114.465C66.7529 114.101 58.6855 127.868 58.9313 128.821C59.1941 129.855 70.2791 148.812 70.4932 148.598C70.5927 148.499 70.2855 142.165 69.815 134.524C69.3425 126.882 69.0416 120.542 69.1496 120.436C69.2556 120.33 71.078 120.902 73.1992 121.707C75.3183 122.511 78.1897 123.549 79.5777 124.015C81.5125 124.665 83.6273 126.376 88.6475 131.347L95.1955 137.833L99.8618 136.827C102.428 136.277 104.844 135.705 105.229 135.557C106.579 135.047 105.897 136.381 102.006 141.854L98.0817 147.377V165.485C98.0817 176.445 97.872 183.593 97.552 183.593C97.2617 183.593 94.1084 180.932 90.5441 177.679C86.9798 174.429 84.0639 171.886 84.0639 172.03C84.0639 172.174 85.0366 174.014 86.2254 176.121C87.8126 178.937 89.6626 181.065 93.2015 184.152L98.0182 188.356L98.0478 192.277C98.069 195.225 98.3911 196.789 99.3405 198.583L100.603 200.965L100.883 175.052L101.165 149.138L105.592 142.695ZM81.824 185.306C81.824 182.062 81.6417 181.664 74.7504 169.758C70.8598 163.039 67.3675 157.163 66.986 156.702C66.6046 156.24 66.1236 155.383 65.9138 154.796C65.7061 154.212 63.9388 151.061 61.9892 147.794C60.0396 144.529 57.6323 140.404 56.6363 138.634C55.6404 136.863 54.744 135.413 54.6423 135.413C54.4452 135.413 48.8359 145.03 43.8603 153.898C40.1476 160.52 39.5882 162.537 39.8869 168.246C40.0692 171.765 40.4803 173.516 41.703 176.017C44.7249 182.185 51.0101 186.95 57.5899 188.057C59.0458 188.303 65.0937 188.533 71.0293 188.569L81.824 188.635V185.306ZM197.906 188.07C202.242 187.248 206.3 185.211 209.176 182.41C213.81 177.895 215.963 172.805 215.929 166.444C215.897 160.549 215.864 160.473 204.062 140.065L201.083 134.913L195.507 144.497C192.439 149.769 189.788 154.481 189.616 154.97C189.445 155.461 188.981 156.24 188.591 156.702C187.955 157.449 185.12 162.239 177.317 175.738C175.028 179.693 174.895 180.163 174.895 184.279V188.635H184.912C190.422 188.635 196.268 188.381 197.906 188.07ZM60.3321 112.007L65.0068 104.007L63.0424 96.2084C61.9616 91.9184 61.0759 87.999 61.0759 87.4972C61.0759 86.6841 61.7709 86.6269 67.3844 86.97C70.8534 87.1817 73.8943 87.3934 74.1444 87.4358C74.5343 87.4993 78.0456 81.7737 84.1677 71.0849L85.8842 68.0823L71.6587 68.3343C55.918 68.6096 53.7586 68.9886 49.1517 72.2664C39.319 79.2646 36.9223 91.9544 43.4237 102.588C45.5719 106.083 47.6017 109.65 49.5098 113.281C50.4888 115.132 52.04 117.813 52.9576 119.242C54.3435 121.402 54.7164 121.686 55.1403 120.923C55.4242 120.419 57.7595 116.407 60.3321 112.007ZM207.737 110.2C211.064 104.5 214.259 98.599 214.836 97.0871C215.938 94.201 216.277 88.3527 215.541 84.9499C214.389 79.6351 209.426 73.4268 204.219 70.7905C200.034 68.671 195.171 68.131 181.871 68.3068L170.063 68.4635L175.31 77.4266C178.194 82.3582 180.733 86.6799 180.947 87.0335C181.242 87.512 183.321 87.5311 189.074 87.1034C193.327 86.7879 196.908 86.6312 197.031 86.7561C197.156 86.8789 196.26 90.9444 195.039 95.787C193.821 100.632 192.778 105.163 192.723 105.858C192.609 107.297 200.733 121.603 201.305 120.976C201.513 120.75 204.408 115.901 207.737 110.2ZM156.332 89.4707C157.412 89.4707 161.752 89.1827 165.982 88.8291L173.67 88.1854L173.07 86.8683C172.74 86.1442 172.032 85.5513 171.496 85.5513C170.078 85.5513 159.209 86.6206 157.164 86.9636C155.501 87.2389 155.355 87.1097 154.166 84.302C153.479 82.6779 152.502 80.7193 151.996 79.9485C151.487 79.1778 151.038 78.1698 150.996 77.7061C150.953 77.2445 150.021 74.9111 148.919 72.5247C147.2 68.7874 146.726 68.184 145.507 68.184H144.096L146.088 72.8042C147.179 75.3452 149.222 80.0734 150.623 83.3089C152.024 86.5444 153.181 89.5151 153.191 89.9111C153.206 90.4066 153.392 90.4489 153.791 90.0508C154.109 89.7332 155.253 89.4728 156.334 89.4728L156.332 89.4707ZM103.411 88.9201C103.25 88.6597 103.363 88.3632 103.659 88.2595C103.958 88.1557 106.09 83.6604 108.395 78.2672C112.295 69.1495 112.506 68.4508 111.436 68.275C110.801 68.1734 110.07 68.3025 109.809 68.5651C109.546 68.8255 107.567 73.071 105.407 77.9962C101.941 85.9091 101.335 86.9446 100.203 86.8916C99.4973 86.8599 95.5452 86.5041 91.4214 86.1018L83.9219 85.3692L82.8984 86.7201L81.8748 88.071L92.3602 88.935C102.871 89.8031 103.954 89.801 103.411 88.9201ZM156.643 58.7994C149.389 46.2345 145.48 40.0939 143.441 38.0548C139.9 34.5123 135.049 32.3228 129.881 31.9332C120.479 31.2218 112.699 35.427 107.895 43.8206C105.923 47.2332 103.938 50.6388 101.941 54.0373L97.588 61.4611H158.177L156.643 58.7994Z" fill="#27C4E7"/>
<path d="M123.115 231.39C122.903 231.179 121.795 230.933 120.65 230.844C114.886 230.391 106.31 223.715 101.865 216.223C100.402 213.752 99.203 211.474 99.203 211.156C99.203 210.839 99.008 210.493 98.7707 210.392C98.5334 210.288 97.2916 208.439 96.0095 206.284C94.7274 204.124 92.0722 200.783 90.1099 198.852L86.5414 195.343L73.1062 195.316C56.1301 195.282 51.7033 194.524 45.9393 190.657C41.7774 187.871 35.8461 181.019 35.8461 179.003C35.8461 178.59 35.2909 177.249 34.6149 176.021C32.7712 172.68 32.4852 163.346 34.0787 158.624C34.9878 155.937 46.6662 134.756 48.5797 132.33C48.8234 132.023 49.3871 131.064 49.8343 130.2C50.5802 128.754 50.5336 128.413 49.2727 125.997C48.2938 124.157 47.2621 122.346 46.1788 120.565C40.3682 111.113 34.9857 101.214 34.0851 98.3237C32.6229 93.6293 32.6716 86.0509 34.1953 81.5344C37.1535 72.7597 44.3818 65.6514 53.2248 62.8162C55.8059 61.9904 59.0651 61.7913 73.1317 61.5923L89.951 61.353L96.9589 49.237C102.479 39.6979 104.742 36.3332 107.612 33.409C111.576 29.3711 116.27 26.7581 121.517 25.6634C124.738 24.9922 132.431 24.8207 133.018 25.4072C133.217 25.6062 134.115 25.8265 135.009 25.8963C137.287 26.0763 142.628 28.6109 145.77 31.0057C148.506 33.0914 151.894 37.1527 153.533 40.3119C154.05 41.3135 155.103 43.1408 155.87 44.3732C156.637 45.6056 157.555 47.1174 157.908 47.7336C158.26 48.3498 160.083 51.4307 161.956 54.5793C163.829 57.7279 165.363 60.5505 165.363 60.8512C165.363 61.19 171.63 61.4864 181.763 61.6304C190.782 61.7574 199.464 62.1322 201.056 62.4604C210.066 64.3196 219.102 72.855 221.647 81.9092C223.933 90.0466 222.628 98.9928 218.297 104.879C217.614 105.802 216.182 108.197 215.109 110.2C214.037 112.204 211.861 116.112 210.274 118.884C208.686 121.658 206.862 124.953 206.218 126.204L205.048 128.482L210.225 137.41C213.073 142.32 216.37 147.976 217.551 149.979C220.708 155.338 221.855 158.224 222.552 162.592C224.056 171.981 220.236 181.777 212.501 188.372C205.612 194.248 202.747 194.941 184.838 195.061L170.394 195.159L165.175 200.16C162.306 202.913 159.644 205.793 159.258 206.563C158.873 207.334 157.002 210.601 155.101 213.826C149.328 223.613 142.56 229.315 134.509 231.168C131.68 231.82 123.702 231.975 123.115 231.39ZM105.592 142.695C108.029 139.152 110.186 136.063 110.388 135.832C110.589 135.599 111.947 136.167 113.407 137.092L116.063 138.773H140.644L143.456 137.115L146.268 135.459L151.051 142.578L155.832 149.697L155.849 174.349L155.866 199L157.247 196.757C158.273 195.093 158.629 193.725 158.633 191.436L158.64 188.355L161.939 185.687C164.088 183.955 166.044 181.671 167.544 179.149C168.811 177.017 169.848 175.102 169.848 174.893C169.848 174.463 167.023 176.841 162.746 180.864C161.153 182.367 159.576 183.593 159.241 183.593C158.818 183.593 158.635 178.096 158.635 165.404V147.216L154.647 141.562C152.454 138.454 150.75 135.822 150.862 135.711C150.975 135.603 153.412 136.042 156.281 136.685L161.498 137.854L168.057 131.39L174.613 124.923L181.013 122.604C184.535 121.328 187.502 120.371 187.608 120.476C187.714 120.582 187.523 125.713 187.184 131.877C186.845 138.039 186.654 143.69 186.76 144.429C186.908 145.477 188.068 143.857 191.994 137.124C194.77 132.366 197.029 128.366 197.012 128.235C196.932 127.54 190.25 116.377 189.913 116.371C189.693 116.366 178.216 120.523 164.412 125.607C139.958 134.615 139.199 134.852 134.956 134.852H130.6V68.1839H126.116V134.852H122.394C119.173 134.852 117.243 134.322 107.957 130.896C102.425 128.855 96.8908 126.82 91.3538 124.792C72.7057 117.978 67.8042 116.028 67.8042 115.422C67.8042 115.052 67.5966 114.622 67.3444 114.465C66.7532 114.101 58.6857 127.868 58.9316 128.821C59.1943 129.855 70.2794 148.812 70.4934 148.598C70.593 148.499 70.2857 142.165 69.8153 134.524C69.3427 126.882 69.0418 120.542 69.1499 120.436C69.2558 120.33 71.0783 120.902 73.1995 121.707C75.3186 122.511 78.19 123.549 79.578 124.015C81.5127 124.665 83.6276 126.376 88.6477 131.347L95.1958 137.833L99.862 136.827C102.428 136.277 104.844 135.705 105.23 135.557C106.58 135.047 105.897 136.381 102.007 141.854L98.082 147.376V165.485C98.082 176.445 97.8722 183.593 97.5522 183.593C97.2619 183.593 94.1087 180.932 90.5443 177.679C86.98 174.429 84.0641 171.886 84.0641 172.03C84.0641 172.174 85.0368 174.014 86.2256 176.121C87.8128 178.937 89.6628 181.065 93.2017 184.152L98.0184 188.355L98.0481 192.277C98.0693 195.224 98.3914 196.789 99.3407 198.583L100.604 200.965L100.883 175.052L101.165 149.138L105.592 142.695ZM81.8242 185.306C81.8242 182.062 81.642 181.664 74.7507 169.758C70.86 163.039 67.3677 157.163 66.9863 156.702C66.6048 156.24 66.1238 155.383 65.914 154.796C65.7063 154.212 63.939 151.061 61.9894 147.794C60.0399 144.529 57.6326 140.404 56.6366 138.634C55.6406 136.863 54.7442 135.413 54.6425 135.413C54.4454 135.413 48.8362 145.03 43.8605 153.898C40.1478 160.519 39.5884 162.537 39.8872 168.246C40.0694 171.765 40.4805 173.516 41.7033 176.017C44.7251 182.185 51.0104 186.949 57.5902 188.057C59.046 188.303 65.0939 188.533 71.0295 188.569L81.8242 188.635V185.306ZM197.907 188.07C202.242 187.248 206.3 185.211 209.176 182.41C213.81 177.895 215.963 172.805 215.929 166.444C215.898 160.549 215.864 160.473 204.063 140.065L201.083 134.913L195.508 144.497C192.439 149.769 189.788 154.481 189.617 154.97C189.445 155.461 188.981 156.24 188.591 156.702C187.955 157.449 185.12 162.239 177.317 175.738C175.029 179.693 174.895 180.163 174.895 184.279V188.635H184.912C190.422 188.635 196.268 188.381 197.907 188.07ZM60.3323 112.007L65.007 104.007L63.0426 96.2083C61.9619 91.9184 61.0761 87.999 61.0761 87.4972C61.0761 86.6841 61.7712 86.6269 67.3847 86.9699C70.8536 87.1817 73.8903 87.3934 74.134 87.4357C74.5112 87.4993 82.4409 74.5278 84.9902 69.6746L85.8272 68.0823L71.6292 68.3342C55.9203 68.6095 53.7567 68.9907 49.1519 72.2663C39.3193 79.2645 36.9226 91.9544 43.424 102.588C45.8758 106.597 47.4672 109.411 49.9508 114.122C51.1693 116.434 52.7205 119.113 53.3965 120.076C54.4497 121.573 54.7018 121.696 55.1405 120.917C55.4244 120.415 57.7597 116.407 60.3323 112.007ZM207.737 110.2C211.064 104.5 214.26 98.5989 214.836 97.0871C215.938 94.201 216.277 88.3526 215.542 84.9499C214.389 79.6351 209.426 73.4267 204.219 70.7905C200.034 68.6709 195.171 68.131 181.871 68.3067L170.064 68.4634L175.311 77.4266C178.195 82.3581 180.733 86.6798 180.947 87.0334C181.242 87.512 183.321 87.531 189.074 87.1033C193.327 86.7878 196.908 86.6311 197.031 86.756C197.156 86.8789 196.26 90.9444 195.039 95.787C193.821 100.632 192.778 105.163 192.723 105.858C192.609 107.297 200.733 121.603 201.306 120.976C201.513 120.75 204.408 115.901 207.737 110.2ZM156.332 89.4706C157.413 89.4706 161.753 89.1826 165.982 88.829L173.67 88.1853L173.071 86.8683C172.74 86.1441 172.032 85.5512 171.496 85.5512C170.078 85.5512 159.21 86.6205 157.165 86.9636C155.501 87.2388 155.355 87.1097 154.166 84.3019C153.48 82.6778 152.503 80.7192 151.996 79.9485C151.488 79.1777 151.038 78.1698 150.996 77.7061C150.954 77.2445 150.021 74.911 148.919 72.5247C147.201 68.7874 146.726 68.1839 145.507 68.1839H144.096L146.088 72.8042C147.179 75.3451 149.222 80.0734 150.623 83.3088C152.024 86.5443 153.181 89.5151 153.191 89.911C153.206 90.4065 153.393 90.4489 153.791 90.0508C154.109 89.7332 155.253 89.4727 156.334 89.4727L156.332 89.4706ZM103.412 88.9201C103.25 88.6596 103.363 88.3632 103.659 88.2594C103.958 88.1557 106.09 83.6603 108.396 78.2672C112.295 69.1495 112.507 68.4507 111.437 68.275C110.801 68.1733 110.07 68.3025 109.809 68.565C109.546 68.8255 107.567 73.071 105.408 77.9962C101.941 85.9091 101.335 86.9445 100.203 86.8916C99.4975 86.8598 95.5454 86.5041 91.4216 86.1018L83.9221 85.3691L82.8986 86.7201L81.8751 88.071L92.3604 88.9349C102.871 89.8031 103.954 89.8009 103.412 88.9201ZM156.643 58.7994C149.39 46.2344 145.48 40.0938 143.441 38.0547C139.9 34.5122 135.05 32.3228 129.881 31.9332C120.479 31.2217 112.7 35.427 107.896 43.8205C105.923 47.2332 103.938 50.6388 101.941 54.0372L97.5882 61.461H158.178L156.643 58.7994Z" fill="#16C3E7"/>
<path d="M123.115 231.391C122.903 231.179 121.848 230.938 120.767 230.853C117.838 230.622 112.231 227.687 108.65 224.507C105.456 221.672 102.659 217.922 100.277 213.284C99.5654 211.9 98.8385 210.638 98.6647 210.485C98.4888 210.331 97.1072 208.188 95.5963 205.721C94.0854 203.258 91.4132 199.913 89.6585 198.289L86.4693 195.337L73.0723 195.299C56.0157 195.25 51.68 194.507 45.9372 190.659C41.7626 187.862 35.8461 181.017 35.8461 178.988C35.8461 178.571 35.3036 177.231 34.6403 176.009C33.6761 174.23 33.3858 172.54 33.1781 167.486C33.0001 163.094 33.1103 161.182 33.5426 161.182C33.8838 161.182 34.1635 160.53 34.1635 159.734C34.1635 158.936 34.8946 156.729 35.7867 154.83C37.4375 151.321 47.6558 133.45 48.7196 132.216C49.0396 131.843 49.3024 131.358 49.3024 131.138C49.3024 130.918 49.7156 130.282 50.2199 129.723C50.968 128.898 51.0082 128.553 50.4318 127.86C50.044 127.392 49.9296 127.009 50.1818 127.009C50.434 127.009 50.1966 126.687 49.6584 126.293C49.1201 125.899 48.62 125.207 48.548 124.752C48.478 124.299 47.5287 122.541 46.4395 120.845C42.8243 115.217 35.7592 102.796 35.5473 101.699C35.4328 101.106 34.9073 99.8145 34.3818 98.8278C33.7227 97.587 33.3519 95.2239 33.1802 91.152C32.9704 86.2099 33.1209 84.7108 34.1126 81.7717C37.143 72.8022 44.3479 65.658 53.2269 62.8206C55.8228 61.9905 58.8828 61.8106 72.5701 61.6856C81.5127 61.603 88.3256 61.6708 87.709 61.8338C87.0923 61.9969 86.3591 62.3463 86.0794 62.6088C85.4373 63.2187 87.9739 62.4945 89.1245 61.7407C90.129 61.0822 91.5149 58.9922 93.7675 54.7383C94.666 53.0443 95.8633 51.1513 96.427 50.5351C96.9906 49.9211 97.4441 49.2117 97.4335 48.964C97.3912 47.9434 103.333 38.3767 105.529 35.929C106.828 34.4764 108.224 32.8163 108.631 32.2404C109.036 31.6644 110.424 30.6565 111.714 30.0044C113.005 29.3501 114.202 28.5941 114.378 28.3252C114.552 28.0542 116.192 27.2961 118.023 26.6418C121.587 25.365 132.844 24.4355 132.844 25.4201C132.844 25.7059 133.67 25.941 134.679 25.941C136.968 25.941 142.994 28.7487 146.164 31.2939C148.563 33.2165 153.571 39.3995 153.581 40.454C153.586 40.7631 154.465 42.2474 155.535 43.753C156.607 45.2563 157.372 46.6687 157.237 46.8868C157.101 47.1049 157.427 47.7634 157.957 48.3478C158.987 49.4828 165.056 59.5724 165.429 60.7709C165.599 61.3172 169.337 61.5226 181.625 61.6645C190.411 61.7661 199.013 62.1112 200.738 62.4331C209.907 64.1482 218.951 72.5968 221.715 82.0237C222.183 83.6287 222.514 85.1406 222.446 85.3862C222.38 85.6297 222.511 86.771 222.742 87.9208C223.289 90.6587 221.852 98.218 220.28 100.88C219.619 102.002 219.271 102.919 219.511 102.919C219.748 102.919 219.435 103.486 218.811 104.179C217.748 105.364 210.778 117.258 210.778 117.889C210.778 118.048 209.47 120.443 207.875 123.206L204.972 128.233L206.332 130.651C207.08 131.981 209.648 136.474 212.039 140.633C214.429 144.793 216.383 148.471 216.383 148.806C216.383 149.145 216.625 149.42 216.919 149.42C217.214 149.42 218.477 151.512 219.727 154.072C221.475 157.644 222.151 159.874 222.641 163.653C223.128 167.416 223.12 168.676 222.615 168.989C222.251 169.212 222.117 169.826 222.319 170.351C222.768 171.52 221.496 176.309 220.738 176.309C220.435 176.309 220.327 176.669 220.498 177.114C220.668 177.555 219.778 179.505 218.523 181.446C214.573 187.549 209.309 191.712 202.927 193.774C199.638 194.839 197.887 194.96 184.906 195.015L170.528 195.079L165.001 200.385C161.483 203.762 158.962 206.714 158.063 208.507C151.594 221.42 143.619 229.068 134.418 231.189C131.661 231.825 123.691 231.967 123.115 231.391ZM105.592 142.695C108.029 139.152 110.186 136.063 110.388 135.832C110.589 135.599 111.947 136.167 113.407 137.092L116.063 138.773H140.644L143.456 137.115L146.268 135.46L151.051 142.579L155.832 149.697L155.849 174.349L155.866 199L157.247 196.758C158.273 195.093 158.629 193.725 158.633 191.437L158.64 188.356L161.939 185.688C164.088 183.956 166.044 181.671 167.544 179.149C168.811 177.017 169.848 175.103 169.848 174.893C169.848 174.463 167.023 176.841 162.746 180.864C161.153 182.367 159.576 183.593 159.241 183.593C158.818 183.593 158.635 178.097 158.635 165.405V147.216L154.647 141.562C152.454 138.454 150.75 135.822 150.862 135.712C150.975 135.604 153.412 136.042 156.281 136.686L161.498 137.854L168.057 131.39L174.613 124.923L181.013 122.605C184.535 121.328 187.502 120.371 187.608 120.477C187.714 120.582 187.523 125.713 187.184 131.877C186.845 138.039 186.654 143.69 186.76 144.429C186.908 145.477 188.068 143.857 191.994 137.124C194.77 132.366 197.029 128.366 197.012 128.235C196.932 127.54 190.25 116.377 189.913 116.371C189.693 116.367 178.216 120.523 164.412 125.607C139.958 134.615 139.199 134.852 134.956 134.852H130.6V68.1841H126.116V134.852H122.394C119.173 134.852 117.243 134.323 107.957 130.897C102.425 128.855 96.8908 126.82 91.3538 124.792C72.7057 117.978 67.8042 116.028 67.8042 115.422C67.8042 115.052 67.5966 114.622 67.3444 114.465C66.7532 114.101 58.6857 127.869 58.9316 128.821C59.1943 129.855 70.2794 148.812 70.4934 148.598C70.593 148.499 70.2857 142.166 69.8153 134.524C69.3427 126.882 69.0418 120.542 69.1499 120.436C69.2558 120.33 71.0783 120.902 73.1995 121.707C75.3186 122.511 78.19 123.549 79.578 124.015C81.5127 124.665 83.6276 126.376 88.6477 131.348L95.1958 137.833L99.862 136.828C102.428 136.277 104.844 135.705 105.23 135.557C106.58 135.047 105.897 136.381 102.007 141.854L98.082 147.377V165.485C98.082 176.445 97.8722 183.593 97.5522 183.593C97.2619 183.593 94.1087 180.932 90.5443 177.679C86.98 174.429 84.0641 171.886 84.0641 172.03C84.0641 172.174 85.0368 174.014 86.2256 176.121C87.8128 178.937 89.6628 181.065 93.2017 184.153L98.0184 188.356L98.0481 192.277C98.0693 195.225 98.3914 196.789 99.3407 198.583L100.604 200.965L100.883 175.052L101.165 149.138L105.592 142.695ZM81.8242 185.307C81.8242 182.063 81.642 181.664 74.7507 169.758C70.86 163.039 67.3677 157.164 66.9863 156.702C66.6048 156.24 66.1238 155.383 65.914 154.796C65.7063 154.212 63.939 151.061 61.9894 147.794C60.0399 144.529 57.6326 140.404 56.6366 138.634C55.6406 136.864 54.7442 135.413 54.6425 135.413C54.4454 135.413 48.8362 145.031 43.8605 153.898C40.1478 160.52 39.5884 162.538 39.8872 168.246C40.0694 171.765 40.4805 173.517 41.7033 176.017C44.7251 182.185 51.0104 186.95 57.5902 188.057C59.046 188.303 65.0939 188.534 71.0295 188.569L81.8242 188.635V185.307ZM197.907 188.07C202.242 187.248 206.3 185.211 209.176 182.41C213.81 177.895 215.963 172.805 215.93 166.444C215.898 160.549 215.864 160.473 204.063 140.065L201.083 134.913L195.508 144.497C192.439 149.769 189.788 154.481 189.617 154.97C189.445 155.461 188.981 156.24 188.591 156.702C187.955 157.449 185.12 162.239 177.317 175.738C175.029 179.693 174.895 180.163 174.895 184.28V188.635H184.912C190.422 188.635 196.268 188.381 197.907 188.07ZM60.3323 112.007L65.007 104.007L63.0426 96.2085C61.9619 91.9186 61.0761 87.9928 61.0761 87.4825C61.0761 86.6694 61.6165 86.5953 65.4203 86.8896C67.8106 87.0738 70.8663 87.2813 72.2141 87.3512L74.6595 87.4783L78.6053 80.7723C80.504 77.5557 82.3752 74.3229 84.2188 71.0744L85.8844 68.0824L71.6589 68.3344C55.9182 68.6097 53.7588 68.9887 49.1519 72.2665C43.2502 76.4675 39.7706 83.129 39.7706 90.2225C39.7706 94.6479 40.8726 98.4043 43.3371 102.358C44.3924 104.052 46.6916 108.202 48.4484 111.579C50.2051 114.954 52.25 118.44 52.9938 119.325C53.7398 120.208 54.3564 121.228 54.3649 121.59C54.3734 121.95 54.6679 121.743 55.0176 121.125C55.3672 120.51 57.7618 116.407 60.3323 112.007ZM207.737 110.201C211.064 104.5 214.26 98.5991 214.836 97.0872C215.938 94.2012 216.277 88.3528 215.542 84.95C214.389 79.6352 209.426 73.4269 204.219 70.7907C200.034 68.6711 195.171 68.1311 181.871 68.3069L170.064 68.4636L175.311 77.4267C178.195 82.3583 180.733 86.68 180.947 87.0336C181.242 87.5121 183.321 87.5312 189.074 87.1035C193.327 86.788 196.908 86.6313 197.031 86.7562C197.156 86.879 196.26 90.9445 195.039 95.7871C193.821 100.632 192.778 105.163 192.723 105.858C192.609 107.298 200.733 121.603 201.306 120.976C201.513 120.75 204.408 115.901 207.737 110.201ZM156.332 89.4708C157.413 89.4708 161.753 89.1828 165.982 88.8292L173.67 88.1855L173.071 86.8684C172.74 86.1443 172.032 85.5514 171.496 85.5514C170.078 85.5514 159.21 86.6207 157.165 86.9637C155.501 87.239 155.355 87.1098 154.166 84.3021C153.48 82.678 152.503 80.7194 151.996 79.9486C151.488 79.1779 151.038 78.17 150.996 77.7062C150.954 77.2446 150.021 74.9112 148.919 72.5248C147.201 68.7875 146.726 68.1841 145.507 68.1841H144.096L146.088 72.8043C152.043 86.644 153.011 88.9753 152.954 89.3459C152.789 90.43 153.09 90.7518 153.698 90.1441C154.069 89.7757 155.253 89.4708 156.332 89.4708ZM103.412 88.9202C103.25 88.6598 103.363 88.3634 103.659 88.2596C103.958 88.1558 106.09 83.6605 108.396 78.2674C112.295 69.1496 112.507 68.4509 111.437 68.2751C110.801 68.1735 110.07 68.3027 109.809 68.5652C109.546 68.8257 107.567 73.0711 105.408 77.9963C101.941 85.9092 101.335 86.9447 100.203 86.8917C99.4975 86.86 95.5454 86.5042 91.4216 86.1019L83.9221 85.3693L82.8986 86.7202L81.8751 88.0711L92.3604 88.9351C102.871 89.8032 103.954 89.8011 103.412 88.9202ZM84.1976 63.3288C83.8119 63.1721 83.6361 62.8142 83.8119 62.5326C83.9857 62.251 83.8755 62.0202 83.5683 62.0202C83.3924 62.0336 83.2219 62.0866 83.0696 62.1754C82.9173 62.2641 82.7871 62.3863 82.6888 62.5326C82.3773 63.0408 83.2546 63.6125 84.3417 63.6125C84.6511 63.6125 84.5854 63.4855 84.1976 63.3288ZM91.7331 60.7942C91.5551 60.3495 91.4216 60.4808 91.3941 61.133C91.3708 61.7259 91.5022 62.0541 91.6908 61.8698C91.8751 61.6835 91.8963 61.1986 91.7331 60.7942ZM156.641 58.7995C149.39 46.2346 145.48 40.094 143.441 38.0549C139.9 34.5124 135.05 32.323 129.881 31.9334C120.479 31.2219 112.7 35.4271 107.896 43.8207C105.923 47.2334 103.938 50.639 101.941 54.0374L97.5882 61.4612H158.178L156.641 58.7995Z" fill="#0BC2E6"/>
<path d="M123.312 231.253C122.848 230.933 121.623 230.666 120.589 230.66C117.389 230.647 111.937 227.598 107.766 223.494C104.213 219.996 99.7624 213.511 99.7624 211.827C99.7624 211.427 99.4297 210.898 99.0229 210.652C98.3066 210.218 94.9118 204.613 94.6787 203.48C94.6151 203.173 93.0851 201.547 91.2776 199.87C89.4678 198.191 87.9887 196.514 87.9887 196.145C87.9887 195.402 78.7367 195.002 65.7021 195.18C60.8705 195.243 58.2725 195.076 58.2725 194.699C58.2725 194.356 57.6919 194.261 56.8718 194.466C56.0199 194.68 55.469 194.581 55.469 194.21C55.469 193.861 55.0027 193.751 54.367 193.95C52.7586 194.46 45.4901 190.786 42.4873 187.942C39.1264 184.76 36.2423 180.521 35.3375 177.429C34.9327 176.042 34.3139 174.73 33.9664 174.512C33.0912 173.965 32.6865 161.182 33.5426 161.182C33.8838 161.182 34.1635 160.727 34.1635 160.168C34.1635 158.402 36.9098 152.047 38.9696 149.051C40.898 146.244 41.5909 145.028 46.1449 136.427C47.338 134.174 48.478 132.205 48.6815 132.05C49.3151 131.568 50.9849 128.753 50.9849 128.171C50.9849 127.864 50.4721 127.136 49.847 126.553C49.2218 125.971 48.5925 124.891 48.4484 124.152C48.3085 123.413 47.9377 122.725 47.6262 122.621C47.465 122.559 47.3254 122.451 47.2246 122.311C47.1237 122.171 47.0659 122.004 47.0582 121.832C47.0582 121.501 46.4161 120.387 45.63 119.358C44.8417 118.327 44.4009 117.48 44.6467 117.474C44.8946 117.472 44.8226 117.283 44.4856 117.055C43.4409 116.352 35.7422 102.874 35.5896 101.483C35.5091 100.757 34.9751 99.4585 34.4029 98.5989C32.695 96.0346 32.5593 86.6183 34.155 81.6571C34.8374 79.5355 35.8439 77.3164 36.3928 76.7298C36.9416 76.1412 37.5541 75.146 37.7533 74.5192C38.4038 72.4717 44.7357 66.7101 48.3318 64.8933C53.5194 62.2719 58.9061 61.4609 71.0931 61.4609C81.019 61.4609 81.625 61.5223 82.5723 62.6255C83.208 63.3687 83.9179 63.6609 84.5197 63.4301C85.3229 63.1504 86.1442 62.9254 86.9779 62.7568C87.8086 62.5895 88.8787 62.0411 89.3576 61.5371C91.0402 59.7585 93.1296 56.9783 92.78 56.9783C92.2926 56.9783 95.2064 51.943 96.5901 50.3951C97.2089 49.7027 97.5501 49.1353 97.3488 49.1353C96.9907 49.1353 102.409 39.611 103.085 39.0498C103.272 38.8953 104.547 37.3834 105.925 35.6895C109.205 31.6451 110.854 30.0867 111.846 30.0867C112.293 30.0867 113.193 29.5531 113.846 28.9009C115.878 26.8682 120.839 25.4749 127.097 25.1742C130.466 25.0112 132.844 25.1128 132.844 25.4198C132.844 25.7057 133.702 25.9407 134.751 25.9407C137.718 25.9407 144.626 29.6547 148.08 33.1062C149.739 34.7662 151.81 37.5295 152.679 39.2468C153.547 40.964 154.865 43.0688 155.605 43.9306C156.345 44.7924 156.982 45.6817 157.023 45.9125C157.061 46.1454 157.124 46.5774 157.163 46.8759C157.201 47.1724 157.612 47.8669 158.074 48.4153C159.07 49.6011 165.109 59.7437 165.429 60.7727C165.599 61.3233 169.263 61.5308 181.346 61.679C198.799 61.895 202.503 62.3058 206.898 64.5122C210.57 66.3543 215.73 70.6676 216.415 72.4674C216.69 73.1916 217.129 73.7845 217.39 73.7845C218.54 73.7845 222.916 83.9482 222.238 85.0451C222.073 85.3097 222.225 86.4786 222.573 87.6432C223.075 89.316 223.02 90.7452 222.31 94.4825C221.819 97.0806 221.068 99.6004 220.647 100.081C220.225 100.564 219.695 101.587 219.468 102.357C219.242 103.128 218.735 104.136 218.345 104.598C217.46 105.646 210.778 117.429 210.776 117.946C210.776 118.153 209.515 120.419 207.972 122.981C206.432 125.541 205.171 127.873 205.171 128.165C205.171 128.773 206.544 131.341 208.593 134.572C209.375 135.805 211.494 139.582 213.302 142.968C215.109 146.354 217.015 149.579 217.534 150.138C218.055 150.697 218.92 152.213 219.456 153.506C219.992 154.802 220.787 156.539 221.221 157.367C222.344 159.501 223.181 166.732 222.461 168.074C222.147 168.663 222.037 169.944 222.223 170.922C222.448 172.129 222.202 173.4 221.45 174.869C220.844 176.061 220.464 177.228 220.611 177.463C221.115 178.281 215.287 186.225 213.039 187.782C211.795 188.643 210.778 189.524 210.778 189.742C210.778 189.96 209.515 190.822 207.974 191.663C206.432 192.501 205.171 193.014 205.171 192.802C205.171 192.59 204.855 192.677 204.472 192.993C202.556 194.56 198.36 194.994 184.658 195.036L170.589 195.078L165.033 200.319C161.24 203.897 159.03 206.477 158.072 208.444C156.213 212.259 152.634 218.08 151.142 219.717C145.749 225.625 144.264 226.853 139.841 229.042C135.457 231.213 134.717 231.399 129.633 231.609C126.366 231.744 123.812 231.6 123.312 231.253ZM105.592 142.695C108.029 139.152 110.186 136.063 110.388 135.832C110.589 135.599 111.947 136.167 113.407 137.092L116.063 138.773H140.644L143.456 137.115L146.268 135.459L151.051 142.578L155.832 149.697L155.849 174.348L155.866 199L157.247 196.757C158.273 195.093 158.629 193.725 158.633 191.436L158.64 188.355L161.939 185.687C164.088 183.955 166.044 181.671 167.544 179.149C168.811 177.016 169.848 175.102 169.848 174.893C169.848 174.463 167.023 176.841 162.746 180.864C161.153 182.367 159.576 183.593 159.241 183.593C158.818 183.593 158.635 178.096 158.635 165.404V147.215L154.647 141.562C152.454 138.453 150.75 135.821 150.862 135.711C150.975 135.603 153.412 136.042 156.281 136.685L161.498 137.854L168.057 131.39L174.613 124.923L181.013 122.604C184.535 121.328 187.502 120.37 187.608 120.476C187.714 120.582 187.523 125.713 187.184 131.877C186.845 138.038 186.654 143.69 186.76 144.429C186.908 145.477 188.068 143.857 191.994 137.124C194.77 132.366 197.029 128.366 197.012 128.235C196.932 127.54 190.25 116.377 189.913 116.371C189.693 116.366 178.216 120.523 164.412 125.607C139.958 134.615 139.199 134.852 134.957 134.852H130.6V68.1838H126.116V134.852H122.394C119.173 134.852 117.243 134.322 107.957 130.896C102.425 128.855 96.8908 126.82 91.3538 124.792C72.7057 117.978 67.8042 116.028 67.8042 115.422C67.8042 115.051 67.5966 114.622 67.3444 114.465C66.7532 114.101 58.6858 127.868 58.9316 128.821C59.1943 129.855 70.2794 148.812 70.4934 148.598C70.593 148.499 70.2857 142.165 69.8153 134.523C69.3427 126.882 69.0418 120.542 69.1499 120.436C69.2558 120.33 71.0783 120.902 73.1995 121.707C75.3186 122.511 78.19 123.549 79.578 124.015C81.5127 124.665 83.6276 126.376 88.6477 131.347L95.1958 137.833L99.862 136.827C102.428 136.277 104.844 135.705 105.23 135.557C106.58 135.047 105.897 136.38 102.007 141.854L98.082 147.376V165.485C98.082 176.445 97.8722 183.593 97.5522 183.593C97.2619 183.593 94.1087 180.932 90.5443 177.679C86.98 174.429 84.0641 171.886 84.0641 172.03C84.0641 172.174 85.0368 174.014 86.2256 176.121C87.8128 178.937 89.6628 181.065 93.2017 184.152L98.0184 188.355L98.0481 192.277C98.0693 195.224 98.3914 196.789 99.3407 198.583L100.604 200.965L100.883 175.051L101.165 149.138L105.592 142.695ZM81.8242 185.306C81.8242 182.062 81.642 181.664 74.7507 169.758C70.86 163.039 67.3677 157.163 66.9863 156.702C66.6048 156.24 66.1238 155.382 65.914 154.796C65.7063 154.212 63.939 151.061 61.9894 147.794C60.0399 144.528 57.6326 140.404 56.6366 138.633C55.6406 136.863 54.7442 135.413 54.6425 135.413C54.4454 135.413 48.8362 145.03 43.8605 153.898C40.1478 160.519 39.5884 162.537 39.8872 168.246C40.0694 171.765 40.4805 173.516 41.7033 176.017C44.7251 182.185 51.0104 186.949 57.5902 188.057C59.046 188.302 65.0939 188.533 71.0295 188.569L81.8242 188.635V185.306ZM197.907 188.07C202.242 187.248 206.3 185.211 209.176 182.41C213.81 177.895 215.963 172.805 215.93 166.444C215.898 160.549 215.864 160.473 204.063 140.065L201.083 134.913L195.508 144.497C192.439 149.769 189.788 154.48 189.617 154.97C189.445 155.461 188.981 156.24 188.591 156.702C187.955 157.449 185.12 162.239 177.317 175.738C175.029 179.693 174.895 180.163 174.895 184.279V188.635H184.912C190.422 188.635 196.269 188.381 197.907 188.07ZM60.3238 112.019L64.9922 104.034L62.9155 95.6577C61.7712 91.0501 60.9829 87.1371 61.1587 86.9614C61.3346 86.7856 64.4391 86.8428 68.0543 87.0905L74.6299 87.5415L76.8994 83.6031C78.1497 81.4391 80.0823 78.2036 81.197 76.4101C82.3932 74.4788 83.54 72.5174 84.6363 70.5278L86.0497 67.9022L72.0213 68.2071C60.9129 68.4464 57.3359 68.7132 54.8417 69.4861C46.0199 72.2176 39.7706 80.8165 39.7706 90.2222C39.7706 94.6604 40.8768 98.4168 43.3498 102.357C44.4115 104.051 46.3377 107.581 47.6304 110.2C48.923 112.82 51.0188 116.532 52.2903 118.45C54.2335 121.385 54.6849 121.785 55.1278 120.97C55.4181 120.44 57.7555 116.411 60.3238 112.019ZM207.735 110.2C211.064 104.5 214.262 98.5989 214.838 97.087C215.94 94.2009 216.279 88.3525 215.542 84.9498C214.389 79.635 209.426 73.4266 204.219 70.7904C200.034 68.6708 195.171 68.1309 181.871 68.3066L170.064 68.4633L175.311 77.4265C178.195 82.358 180.733 86.6797 180.947 87.0333C181.242 87.5119 183.321 87.531 189.074 87.1032C193.327 86.7877 196.908 86.631 197.031 86.756C197.156 86.8788 196.26 90.9443 195.039 95.7869C193.821 100.632 192.778 105.163 192.723 105.857C192.609 107.297 200.733 121.603 201.306 120.976C201.513 120.749 204.406 115.901 207.735 110.2ZM156.334 89.4705C157.415 89.4705 161.755 89.1826 165.984 88.8289L173.673 88.1852L173.073 86.8682C172.742 86.144 172.034 85.5511 171.498 85.5511C170.081 85.5511 159.212 86.6204 157.167 86.9635C155.503 87.2387 155.357 87.1096 154.168 84.3018C153.482 82.6778 152.505 80.7191 151.998 79.9484C151.49 79.1776 151.04 78.1697 150.998 77.706C150.956 77.2444 150.023 74.911 148.921 72.5246C147.203 68.7873 146.728 68.1838 145.51 68.1838H144.098L146.09 72.8041C152.045 86.6437 153.013 88.9751 152.956 89.3456C152.791 90.4297 153.092 90.7516 153.7 90.1439C154.071 89.7754 155.255 89.4705 156.334 89.4705ZM103.414 88.92C103.253 88.6596 103.365 88.3631 103.662 88.2594C103.96 88.1556 106.092 83.6603 108.398 78.2671C112.297 69.1494 112.509 68.4506 111.439 68.2749C110.803 68.1732 110.072 68.3024 109.811 68.565C109.548 68.8254 107.569 73.0709 105.41 77.9961C101.943 85.909 101.337 86.9444 100.205 86.8915C99.4997 86.8597 95.5475 86.504 91.4238 86.1017L83.9243 85.369L82.9007 86.72L81.8772 88.0709L92.3625 88.9348C102.873 89.803 103.956 89.8009 103.414 88.92ZM92.4748 61.1814C93.0428 60.4954 93.0152 60.3387 92.3223 60.3387C91.8561 60.3387 91.3263 60.7177 91.1504 61.1793C90.9724 61.643 91.0402 62.0199 91.3009 62.0199C91.5636 62.0199 92.0913 61.6451 92.4748 61.1814ZM156.643 58.7993C149.392 46.2343 145.482 40.0937 143.444 38.0546C139.902 34.5122 135.052 32.3227 129.883 31.9331C120.481 31.2216 112.702 35.4269 107.898 43.8205C105.925 47.2331 103.94 50.6387 101.943 54.0371L97.5904 61.4609H158.18L156.643 58.7993ZM84.2125 61.6176C85.0643 61.4906 86.3252 61.4927 87.016 61.6261C87.7047 61.7595 87.0076 61.8632 85.4649 61.859C83.9243 61.8548 83.3606 61.7468 84.2125 61.6176Z" fill="#05C2E6"/>
<path d="M123.592 231.253C122.975 230.967 121.646 230.715 120.64 230.692C119.633 230.671 118.372 230.431 117.836 230.162C116.868 229.692 115.889 229.241 114.901 228.812C110.394 226.842 104.119 220.39 101.201 214.722C100.002 212.393 98.8343 210.485 98.6054 210.485C98.3765 210.485 97.9167 209.791 97.584 208.944C97.2492 208.097 96.3189 206.43 95.5179 205.238C94.7169 204.05 94.3969 203.284 94.8101 203.538C95.2212 203.792 94.9266 203.222 94.1553 202.274C93.3861 201.323 92.5935 200.637 92.3964 200.749C92.1972 200.859 91.6336 200.338 91.1462 199.591C90.6545 198.843 89.6035 197.581 88.8088 196.787L87.3636 195.343L72.8774 195.212C64.9096 195.138 58.6794 194.894 59.0333 194.666C59.6033 194.301 56.5751 193.952 54.348 194.128C53.886 194.164 52.7459 193.842 51.8156 193.412C50.7344 192.917 49.639 192.454 48.531 192.023C46.1491 191.119 42.0783 188.042 41.7054 186.867C41.5253 186.3 41.0146 185.834 40.5738 185.834C40.133 185.834 39.7685 185.457 39.7685 184.993C39.7685 184.529 39.5566 184.152 39.296 184.152C38.7344 184.152 34.7251 176.527 34.7251 175.458C34.7149 175.246 34.6432 175.041 34.5187 174.869C34.3941 174.697 34.2221 174.565 34.0236 174.488C33.14 174.194 32.7246 161.743 33.5998 161.743C33.9092 161.743 34.1635 161.295 34.1635 160.744C34.1635 158.879 37.1175 151.22 38.0987 150.538C38.8891 149.992 43.1337 142.661 43.1337 141.846C43.1337 141.388 43.3244 141.014 43.5575 141.014C43.7885 141.014 44.5958 139.817 45.3524 138.354C46.1068 136.889 47.4312 134.638 48.2937 133.351C49.1561 132.063 49.8618 130.74 49.8618 130.407C49.8618 130.079 50.1161 129.81 50.4234 129.81C51.4109 129.81 51.0231 127.608 49.8237 126.407C49.1837 125.772 48.5755 124.826 48.4717 124.307C48.1644 122.795 45.3312 118.046 44.7357 118.046C44.4348 118.046 44.3458 117.792 44.5365 117.485C44.7272 117.175 44.6149 116.923 44.2886 116.923C43.9622 116.923 43.6952 116.684 43.6952 116.394C43.6952 116.104 42.9387 114.738 42.0127 113.37C41.0887 112 40.3301 110.721 40.3301 110.527C40.3301 110.332 39.3214 108.579 38.0881 106.626C36.8548 104.674 35.8461 102.675 35.8461 102.184C35.8461 101.04 34.6339 98.273 33.9092 97.7669C33.6041 97.5509 33.2523 94.7072 33.1336 91.4442C32.9493 86.4555 33.1124 84.9013 34.155 81.6573C34.8374 79.5356 35.8757 77.2848 36.4627 76.6559C37.0476 76.027 37.5286 75.2266 37.5286 74.8751C37.5286 74.5236 39.1815 72.5248 41.2053 70.4285C48.1941 63.1974 54.5217 61.3192 71.091 61.5649C79.9637 61.6961 81.5403 61.8528 82.5193 62.6998C83.7208 63.7416 85.289 63.6273 88.101 62.2933C89.2199 61.7618 89.684 61.7427 89.8789 62.217C90.0252 62.5706 90.1629 62.3314 90.1862 61.6813C90.2116 61.0334 90.8622 59.8243 91.6336 58.9922C92.4049 58.16 93.0343 57.1288 93.0343 56.7011C93.0343 55.8837 94.9711 52.2544 96.1727 50.8146C96.5605 50.353 97.798 48.1826 98.9275 45.9931C101.74 40.5216 107.855 33.0026 111.265 30.8153C112.803 29.8307 114.501 28.6343 115.041 28.1557C115.582 27.6772 116.351 27.2855 116.751 27.2855C117.152 27.2855 117.72 27.061 118.012 26.7858C119.481 25.4031 132.844 24.2914 132.844 25.5492C132.844 25.8244 133.723 26.0531 134.8 26.0531C137.773 26.0531 144.45 29.5956 147.902 33.0026C149.555 34.633 151.611 37.3561 152.471 39.05C153.333 40.744 154.694 42.889 155.495 43.8143C156.296 44.7375 156.951 45.8873 156.951 46.3679C156.951 46.8486 157.396 47.7316 157.94 48.3287C158.989 49.4848 165.052 59.5617 165.433 60.7856C165.611 61.3573 168.966 61.5119 181.195 61.5162C190.354 61.5183 196.866 61.7385 197.059 62.0498C197.239 62.342 198.599 62.5791 200.083 62.5791C202.037 62.5791 203.844 63.1148 206.656 64.5208C210.344 66.363 216.103 70.9748 216.103 72.0843C216.103 72.3681 216.669 73.1261 217.36 73.7698C219.451 75.7179 221.967 81.5472 221.984 84.4862C221.988 85.2888 222.278 86.7667 222.628 87.7725C223.141 89.242 223.065 90.4934 222.238 94.1587C221.058 99.3931 220.066 101.532 214.355 111.175C212.079 115.016 210.214 118.448 210.212 118.802C210.212 119.155 209.076 121.203 207.69 123.35C206.305 125.497 205.169 127.578 205.169 127.974C205.169 128.76 206.379 131.087 208.595 134.572C209.379 135.805 211.592 139.769 213.512 143.381C215.434 146.993 217.248 150.1 217.544 150.284C218.195 150.686 220.462 155.021 220.019 155.021C219.85 155.021 220.024 155.588 220.414 156.28C221.781 158.713 222.502 161.456 222.505 164.246C222.505 169.032 222.217 172.691 221.78 173.396C221.551 173.766 221.568 174.073 221.818 174.078C222.066 174.082 221.95 174.289 221.556 174.539C221.164 174.789 220.736 175.827 220.606 176.843C220.341 178.944 217.318 183.771 214.912 185.94C214.027 186.738 212.312 188.29 211.106 189.391C209.901 190.492 208.701 191.259 208.443 191.1C208.184 190.941 207.974 191.091 207.974 191.436C207.974 191.782 207.72 191.907 207.413 191.716C207.106 191.525 206.853 191.631 206.853 191.947C206.853 192.264 206.434 192.36 205.921 192.165C205.243 191.904 205.111 192.01 205.446 192.548C205.764 193.065 205.69 193.158 205.194 192.851C204.8 192.607 204.308 192.698 204.088 193.054C203.2 194.49 196.557 195.15 184.707 194.977C178.231 194.884 172.301 194.939 171.53 195.1C169.67 195.489 158.074 206.703 158.074 208.116C158.074 208.708 157.381 210.184 156.531 211.393C155.681 212.602 154.509 214.468 153.92 215.539C152.912 217.375 147.01 224.572 146.211 224.941C146.008 225.034 145.264 225.61 144.558 226.222C143.852 226.836 141.369 228.229 139.04 229.322C135.404 231.029 134.092 231.342 129.758 231.541C126.982 231.668 124.208 231.541 123.592 231.253ZM105.592 142.695C108.029 139.152 110.186 136.063 110.388 135.832C110.589 135.599 111.947 136.167 113.407 137.092L116.063 138.773H140.644L143.456 137.115L146.268 135.46L151.051 142.578L155.832 149.697L155.849 174.349L155.866 199L157.247 196.758C158.273 195.093 158.629 193.725 158.633 191.436L158.64 188.356L161.939 185.688C164.088 183.956 166.044 181.671 167.544 179.149C168.811 177.017 169.848 175.102 169.848 174.893C169.848 174.463 167.023 176.841 162.746 180.864C161.153 182.367 159.576 183.593 159.241 183.593C158.818 183.593 158.635 178.097 158.635 165.405V147.216L154.647 141.562C152.454 138.454 150.75 135.822 150.862 135.712C150.975 135.604 153.412 136.042 156.281 136.686L161.498 137.854L168.057 131.39L174.613 124.923L181.013 122.605C184.535 121.328 187.502 120.371 187.608 120.477C187.714 120.582 187.523 125.713 187.184 131.877C186.845 138.039 186.654 143.69 186.76 144.429C186.908 145.477 188.068 143.857 191.994 137.124C194.77 132.366 197.029 128.366 197.012 128.235C196.932 127.54 190.25 116.377 189.913 116.371C189.693 116.367 178.216 120.523 164.412 125.607C139.958 134.615 139.199 134.852 134.956 134.852H130.6V68.184H126.116V134.852H122.394C119.173 134.852 117.243 134.323 107.957 130.896C102.425 128.855 96.8908 126.82 91.3538 124.792C72.7057 117.978 67.8042 116.028 67.8042 115.422C67.8042 115.052 67.5966 114.622 67.3444 114.465C66.7532 114.101 58.6858 127.869 58.9316 128.821C59.1943 129.855 70.2794 148.812 70.4934 148.598C70.593 148.499 70.2857 142.166 69.8153 134.524C69.3427 126.882 69.0418 120.542 69.1499 120.436C69.2558 120.33 71.0783 120.902 73.1995 121.707C75.3186 122.511 78.19 123.549 79.578 124.015C81.5127 124.665 83.6276 126.376 88.6477 131.347L95.1958 137.833L99.862 136.827C102.428 136.277 104.844 135.705 105.23 135.557C106.58 135.047 105.897 136.381 102.007 141.854L98.082 147.377V165.485C98.082 176.445 97.8722 183.593 97.5522 183.593C97.2619 183.593 94.1087 180.932 90.5443 177.679C86.98 174.429 84.0641 171.886 84.0641 172.03C84.0641 172.174 85.0368 174.014 86.2256 176.121C87.8128 178.937 89.6628 181.065 93.2017 184.152L98.0184 188.356L98.0481 192.277C98.0693 195.225 98.3914 196.789 99.3407 198.583L100.604 200.965L100.883 175.052L101.165 149.138L105.592 142.695ZM81.8242 185.306C81.8242 182.063 81.642 181.664 74.7507 169.758C70.86 163.039 67.3677 157.163 66.9863 156.702C66.6048 156.24 66.1238 155.383 65.914 154.796C65.7063 154.212 63.939 151.061 61.9894 147.794C60.0399 144.529 57.6326 140.404 56.6366 138.634C55.6406 136.863 54.7442 135.413 54.6425 135.413C54.4454 135.413 48.8362 145.03 43.8605 153.898C40.1478 160.52 39.5884 162.538 39.8872 168.246C40.0694 171.765 40.4805 173.516 41.7033 176.017C44.7251 182.185 51.0104 186.95 57.5902 188.057C59.046 188.303 65.0939 188.533 71.0295 188.569L81.8242 188.635V185.306ZM197.907 188.07C202.242 187.248 206.3 185.211 209.176 182.41C213.81 177.895 215.963 172.805 215.93 166.444C215.898 160.549 215.864 160.473 204.063 140.065L201.083 134.913L195.508 144.497C192.439 149.769 189.788 154.481 189.617 154.97C189.445 155.461 188.981 156.24 188.591 156.702C187.955 157.449 185.12 162.239 177.317 175.738C175.029 179.693 174.895 180.163 174.895 184.279V188.635H184.912C190.422 188.635 196.268 188.381 197.907 188.07ZM62.1696 109.08C62.3391 108.926 63.0447 107.693 63.7356 106.343L64.9943 103.882L63.0342 96.1026C61.9576 91.8253 61.0761 87.9567 61.0761 87.51C61.0761 86.8747 61.7182 86.7477 64.0217 86.9213C65.6385 87.0462 68.7006 87.2093 70.824 87.2855L74.6871 87.4231L76.5646 84.3867C77.5966 82.7139 78.7473 80.7193 79.116 79.9485C79.489 79.1778 80.8473 76.9079 82.14 74.9069C83.4326 72.9038 84.6617 70.6974 84.8736 70.0029C85.0855 69.3105 85.4966 68.743 85.7848 68.743C86.0709 68.743 86.3061 68.5524 86.3061 68.3238C86.3061 67.8516 65.2846 67.9638 60.5378 68.4614C50.8239 69.4778 43.6698 74.8243 40.951 83.0993C38.7471 89.8032 39.582 96.2783 43.4642 102.637C44.5937 104.488 46.9756 108.828 48.7578 112.288C50.5378 115.746 52.587 119.289 53.3096 120.161L54.6234 121.745L58.2429 115.553C60.2327 112.146 62 109.235 62.1696 109.08ZM207.735 110.203C211.064 104.5 214.262 98.599 214.838 97.0872C215.94 94.2011 216.279 88.3527 215.542 84.95C214.389 79.6352 209.426 73.4268 204.219 70.7906C200.034 68.671 195.171 68.1311 181.871 68.3068L170.064 68.4635L175.311 77.4267C178.195 82.3582 180.733 86.6799 180.947 87.0335C181.242 87.5121 183.321 87.5311 189.074 87.1034C193.327 86.7879 196.908 86.6312 197.031 86.7561C197.156 86.879 196.26 90.9445 195.039 95.7871C193.821 100.632 192.778 105.163 192.723 105.858C192.609 107.298 200.733 121.603 201.306 120.976C201.513 120.75 204.406 115.903 207.735 110.203ZM156.334 89.4728C157.415 89.4728 161.755 89.1827 165.984 88.8291L173.672 88.1854L173.073 86.8684C172.742 86.1442 172.034 85.5513 171.498 85.5513C170.081 85.5513 159.212 86.6206 157.167 86.9637C155.503 87.2389 155.357 87.1098 154.168 84.302C153.482 82.6779 152.505 80.7193 151.998 79.9485C151.49 79.1778 151.04 78.1699 150.998 77.7062C150.956 77.2446 150.023 74.9111 148.921 72.5248C147.203 68.7875 146.728 68.184 145.51 68.184H144.098L146.09 72.8043C152.045 86.6439 153.013 88.9752 152.956 89.3458C152.791 90.4299 153.092 90.7518 153.7 90.1441C154.071 89.7756 155.255 89.4728 156.334 89.4728ZM103.414 88.9223C103.253 88.6597 103.365 88.3633 103.662 88.2595C103.96 88.1558 106.092 83.6604 108.398 78.2673C112.297 69.1496 112.509 68.4508 111.439 68.2751C110.803 68.1734 110.072 68.3026 109.811 68.5651C109.548 68.8256 107.569 73.0711 105.41 77.9963C101.943 85.9092 101.337 86.9446 100.205 86.8917C99.4997 86.8599 95.5475 86.5042 91.4238 86.1019L83.9243 85.3692L82.9007 86.7202L81.8772 88.0711L92.3625 88.935C102.873 89.8032 103.956 89.8032 103.414 88.9223ZM93.4899 60.9402C93.6382 60.4892 93.2589 60.3113 92.4028 60.432C91.6781 60.5358 90.9999 61.0588 90.8982 61.5966C90.7457 62.397 90.9406 62.4902 91.9832 62.1048C92.6825 61.8444 93.3627 61.3213 93.4899 60.9402ZM156.643 58.7995C149.392 46.2345 145.482 40.0939 143.443 38.0548C139.902 34.5123 135.052 32.3229 129.883 31.9333C120.481 31.2218 112.702 35.4271 107.898 43.8206C105.925 47.2333 103.94 50.6389 101.943 54.0373L97.5904 61.4611H158.18L156.643 58.7995ZM85.6068 61.6496C85.9904 61.495 86.624 61.495 87.0076 61.6496C87.3911 61.8041 87.0775 61.9312 86.3083 61.9312C85.5348 61.9312 85.2212 61.8041 85.6068 61.6496Z" fill="#02C2E7"/>
</g>
<defs>
<clipPath id="clip0_16_87">
<rect width="256" height="256" fill="white"/>
</clipPath>
</defs>
</svg>
