<svg width="256" height="256" viewBox="0 0 256 256" fill="none" xmlns="http://www.w3.org/2000/svg">
<g clip-path="url(#clip0_16_20)">
<path d="M196 0H60C26.8629 0 0 26.8629 0 60V196C0 229.137 26.8629 256 60 256H196C229.137 256 256 229.137 256 196V60C256 26.8629 229.137 0 196 0Z" fill="#242938"/>
<path d="M141.155 59.1635C142.152 58.3383 143.301 57.7176 144.536 57.3371C145.772 56.9565 147.07 56.8234 148.358 56.9455C149.645 57.0676 150.895 57.4424 152.038 58.0485C153.18 58.6547 154.193 59.4802 155.016 60.4781C162.705 69.8228 177.875 91.7134 183.902 102.21C197.553 125.899 205.967 150.165 208.238 170.515C209.366 180.676 209.025 190.352 206.662 198.647C204.261 206.994 199.614 214.553 191.817 219.062C182.379 224.518 171.471 223.755 161.508 220.113C151.506 216.459 140.977 212.407 131.159 203.429C129.26 201.659 128.135 199.21 128.029 196.614C127.923 194.018 128.844 191.485 130.593 189.566C132.341 187.646 134.776 186.496 137.367 186.364C139.958 186.233 142.496 187.131 144.43 188.863C153.093 196.777 161.443 199.107 168.242 201.578C175.094 204.076 179.399 203.484 181.972 201.985C184.124 200.737 186.304 198.2 187.721 193.218C189.165 188.169 189.625 181.255 188.667 172.71C186.764 155.634 179.478 133.97 166.837 112.069C161.367 102.54 146.833 81.5692 139.856 73.0848C139.031 72.087 138.412 70.9365 138.032 69.6988C137.652 68.4611 137.519 67.1607 137.641 65.8716C137.763 64.5825 138.137 63.3301 138.742 62.1859C139.347 61.0417 140.172 60.0281 141.168 59.203" fill="#00D8FF"/>
<path d="M198.645 167.274C198.862 168.551 198.825 169.857 198.537 171.12C198.249 172.382 197.715 173.576 196.967 174.631C196.219 175.687 195.27 176.585 194.176 177.274C193.08 177.963 191.861 178.429 190.586 178.645C178.661 180.627 150.092 182.263 138.004 182.24C110.703 182.24 85.502 177.416 66.7719 169.2C57.4134 165.112 49.2363 159.971 43.251 153.767C37.2001 147.536 33 139.701 33 130.696C33 119.786 39.1165 110.715 47.2411 103.879C55.4052 97.0302 66.5356 91.5484 79.2017 87.5258C81.6907 86.7344 84.3917 86.9656 86.7105 88.1688C87.8586 88.7644 88.8783 89.5808 89.7114 90.5712C90.5445 91.5616 91.1747 92.7066 91.566 93.9409C91.9573 95.1753 92.1019 96.4746 91.9918 97.765C91.8817 99.0553 91.5189 100.311 90.9241 101.461C90.3293 102.611 89.5142 103.632 88.5253 104.467C87.5364 105.301 86.3931 105.932 85.1607 106.324C74.0041 109.874 65.4463 114.33 59.9073 118.996C54.3158 123.677 52.6882 127.712 52.6882 130.696C52.6882 133.194 53.8039 136.349 57.4003 140.069C61.0492 143.842 66.7981 147.694 74.6603 151.138C90.3716 158.026 112.75 162.522 138.004 162.522C149.62 162.522 177.172 160.924 187.292 159.203C188.566 158.986 189.871 159.023 191.131 159.311C192.392 159.599 193.583 160.134 194.637 160.883C195.692 161.632 196.589 162.583 197.276 163.679C197.964 164.776 198.429 165.997 198.645 167.274Z" fill="#00D8FF"/>
<path d="M198.645 167.274C198.862 168.551 198.825 169.857 198.537 171.12C198.249 172.382 197.715 173.576 196.967 174.631C196.219 175.687 195.27 176.585 194.176 177.274C193.08 177.963 191.861 178.429 190.586 178.645C178.661 180.627 150.092 182.263 138.004 182.24C110.703 182.24 85.502 177.416 66.7719 169.2C57.4134 165.112 49.2363 159.971 43.251 153.767C37.2001 147.536 33 139.701 33 130.696C33 119.786 39.1165 110.715 47.2411 103.879C55.4052 97.0302 66.5356 91.5484 79.2017 87.5258C81.6907 86.7344 84.3917 86.9656 86.7105 88.1688C87.8586 88.7644 88.8783 89.5808 89.7114 90.5712C90.5445 91.5616 91.1747 92.7066 91.566 93.9409C91.9573 95.1753 92.1019 96.4746 91.9918 97.765C91.8817 99.0553 91.5189 100.311 90.9241 101.461C90.3293 102.611 89.5142 103.632 88.5253 104.467C87.5364 105.301 86.3931 105.932 85.1607 106.324C74.004 109.874 65.4463 114.33 59.9072 118.996C54.3158 123.677 52.6882 127.712 52.6882 130.696C52.6882 133.194 53.8039 136.349 57.4003 140.069C61.0492 143.842 66.7981 147.694 74.6603 151.138C90.3716 158.026 112.75 162.522 138.004 162.522C149.62 162.522 177.172 160.924 187.292 159.203C188.566 158.986 189.871 159.023 191.131 159.311C192.392 159.599 193.583 160.134 194.637 160.883C195.692 161.632 196.588 162.583 197.276 163.679C197.964 164.776 198.429 165.997 198.645 167.274Z" stroke="#00D8FF"/>
<path d="M78.2403 163.341C75.7933 162.43 73.8075 160.584 72.7196 158.208C71.6317 155.831 71.5307 153.12 72.4388 150.668C76.4027 139.955 88.693 113.214 95.0327 102.224C108.683 78.5357 125.457 59.1064 141.917 46.9598C150.134 40.8996 158.665 36.3644 167.026 34.2742C175.44 32.1709 184.312 32.4207 192.096 36.9297C201.546 42.3851 206.324 52.2181 208.161 62.6952C210.012 73.1986 209.185 85.5817 206.324 98.5828C206.092 99.8906 205.6 101.138 204.875 102.251C204.149 103.363 203.208 104.317 202.105 105.056C201.003 105.794 199.764 106.302 198.461 106.549C197.157 106.796 195.818 106.777 194.522 106.492C193.227 106.207 192.003 105.664 190.922 104.894C189.842 104.123 188.928 103.142 188.235 102.009C187.543 100.877 187.086 99.6156 186.892 98.3016C186.699 96.9876 186.772 95.648 187.108 94.3631C189.615 82.9001 190.035 73.2512 188.775 66.0999C187.515 58.9224 184.837 55.4913 182.265 54.0058C180.112 52.757 176.818 52.1392 171.804 53.4012C166.711 54.6763 160.516 57.7392 153.598 62.8397C139.791 73.0145 124.697 90.1828 112.083 112.083C106.567 121.598 94.7502 147.23 90.8933 157.53C89.9844 159.981 88.1408 161.97 85.768 163.06C83.3953 164.149 80.6875 164.25 78.2403 163.341Z" fill="#00D8FF"/>
<path d="M78.2403 163.341C75.7933 162.43 73.8075 160.584 72.7196 158.208C71.6317 155.831 71.5307 153.12 72.4388 150.668C76.4027 139.955 88.693 113.214 95.0327 102.224C108.683 78.5357 125.457 59.1064 141.917 46.9598C150.134 40.8996 158.665 36.3644 167.026 34.2742C175.44 32.1709 184.312 32.4207 192.095 36.9297C201.546 42.3851 206.324 52.2181 208.161 62.6952C210.012 73.1986 209.185 85.5817 206.324 98.5828C206.092 99.8906 205.6 101.138 204.875 102.251C204.149 103.363 203.208 104.317 202.105 105.056C201.003 105.794 199.764 106.302 198.461 106.549C197.157 106.796 195.818 106.777 194.522 106.492C193.227 106.207 192.003 105.664 190.922 104.894C189.842 104.123 188.928 103.142 188.235 102.009C187.543 100.877 187.086 99.6156 186.892 98.3016C186.699 96.9876 186.772 95.648 187.108 94.3631C189.615 82.9001 190.035 73.2512 188.775 66.0999C187.515 58.9224 184.837 55.4913 182.265 54.0058C180.112 52.757 176.818 52.1392 171.804 53.4012C166.711 54.6763 160.516 57.7392 153.598 62.8397C139.791 73.0145 124.697 90.1828 112.083 112.083C106.567 121.598 94.7502 147.23 90.8933 157.53C89.9844 159.981 88.1408 161.97 85.768 163.06C83.3953 164.149 80.6875 164.25 78.2403 163.341Z" stroke="#00D8FF"/>
<path d="M79.8647 157.248L96.7195 143.74C93.2044 153.953 95.8918 157.767 110.208 160.62L93.3525 174.128L79.8647 157.248Z" fill="#00D8FF"/>
<path d="M67.6324 162.089L59.5307 142.05C68.2962 148.345 72.7147 146.858 79.54 133.936L87.6416 153.975L67.6324 162.089Z" fill="#00D8FF"/>
<path d="M148.618 50.303L169.89 53.9836C159.925 58.1193 158.856 62.6184 166.215 75.2425L144.943 71.6065L148.618 50.303Z" fill="#00D8FF"/>
<path d="M201.048 177.397L187.506 194.25C190.024 183.876 185.334 180.414 170.741 180.759L184.208 163.872L201.048 177.397Z" fill="#00D8FF"/>
<path d="M150.285 65.4451L150.316 86.9449C144.442 77.8844 135.209 78.1705 128.955 87.3188L128.699 65.7011L150.285 65.4451Z" fill="#00D8FF"/>
<path d="M198.305 158.278L181.904 144.221C185.08 154.543 182.279 158.823 167.877 161.2L184.267 174.703L198.305 158.278Z" fill="#00D8FF"/>
<path d="M139.21 143.675C147.848 143.675 154.85 136.662 154.85 128.011C154.85 119.361 147.848 112.348 139.21 112.348C130.572 112.348 123.569 119.361 123.569 128.011C123.569 136.662 130.572 143.675 139.21 143.675Z" fill="#00D8FF"/>
</g>
<defs>
<clipPath id="clip0_16_20">
<rect width="256" height="256" fill="white"/>
</clipPath>
</defs>
</svg>
