<svg width="256" height="256" viewBox="0 0 256 256" fill="none" xmlns="http://www.w3.org/2000/svg">
<g clip-path="url(#clip0_1_9)">
<path d="M196 0H60C26.8629 0 0 26.8629 0 60V196C0 229.137 26.8629 256 60 256H196C229.137 256 256 229.137 256 196V60C256 26.8629 229.137 0 196 0Z" fill="#F4F2ED"/>
<path d="M191.6 128.473C191.6 134.317 189.23 139.606 185.393 143.432C181.555 147.261 176.255 149.631 170.4 149.631C164.545 149.631 159.245 151.996 155.411 155.826C151.574 159.655 149.2 164.945 149.2 170.788C149.2 176.632 146.83 181.922 142.993 185.747C139.155 189.576 133.855 191.946 128 191.946C122.145 191.946 116.845 189.576 113.011 185.747C109.174 181.922 106.8 176.632 106.8 170.788C106.8 164.945 109.174 159.655 113.011 155.826C116.845 151.996 122.145 149.631 128 149.631C133.855 149.631 139.155 147.261 142.993 143.432C146.83 139.606 149.2 134.317 149.2 128.473C149.2 116.786 139.711 107.315 128 107.315C122.145 107.315 116.845 104.946 113.011 101.116C109.174 97.2909 106.8 92.0014 106.8 86.1577C106.8 80.3139 109.174 75.0245 113.011 71.195C116.845 67.3654 122.145 65 128 65C139.711 65 149.2 74.4702 149.2 86.1577C149.2 92.0014 151.574 97.2909 155.411 101.116C159.245 104.946 164.545 107.315 170.4 107.315C182.111 107.315 191.6 116.786 191.6 128.473Z" fill="#F44250"/>
<path d="M106.8 128.473C106.8 116.788 97.3087 107.315 85.6001 107.315C73.8918 107.315 64.4001 116.788 64.4001 128.473C64.4001 140.158 73.8918 149.631 85.6001 149.631C97.3087 149.631 106.8 140.158 106.8 128.473Z" fill="#121212"/>
<path d="M64.4 170.788C64.4 159.103 54.9084 149.631 43.2 149.631C31.4916 149.631 22 159.103 22 170.788C22 182.474 31.4916 191.946 43.2 191.946C54.9084 191.946 64.4 182.474 64.4 170.788Z" fill="#121212"/>
<path d="M234 170.788C234 159.103 224.508 149.631 212.8 149.631C201.092 149.631 191.6 159.103 191.6 170.788C191.6 182.474 201.092 191.946 212.8 191.946C224.508 191.946 234 182.474 234 170.788Z" fill="#121212"/>
</g>
<defs>
<clipPath id="clip0_1_9">
<rect width="256" height="256" fill="white"/>
</clipPath>
</defs>
</svg>
