<svg width="256" height="256" viewBox="0 0 256 256" fill="none" xmlns="http://www.w3.org/2000/svg">
<g clip-path="url(#clip0_1_57)">
<path d="M196 0H60C26.8629 0 0 26.8629 0 60V196C0 229.137 26.8629 256 60 256H196C229.137 256 256 229.137 256 196V60C256 26.8629 229.137 0 196 0Z" fill="#242938"/>
<path d="M212.444 40H43.5556C41.5919 40 40 41.5919 40 43.5556V212.444C40 214.408 41.5919 216 43.5556 216H212.444C214.408 216 216 214.408 216 212.444V43.5556C216 41.5919 214.408 40 212.444 40Z" fill="#FF4A36"/>
<path d="M184.019 164.516H127.13V184H184.019V164.516Z" fill="white"/>
</g>
<defs>
<clipPath id="clip0_1_57">
<rect width="256" height="256" fill="white"/>
</clipPath>
</defs>
</svg>
