<svg width="257" height="256" viewBox="0 0 257 256" fill="none" xmlns="http://www.w3.org/2000/svg">
<g clip-path="url(#clip0_1_2)">
<rect width="257" height="256" rx="60" fill="#FB7A24"/>
<path fill-rule="evenodd" clip-rule="evenodd" d="M128.794 162.841C128.067 167.26 127.556 171.255 125.956 174.936C118.466 192.186 105.7 202.696 86.5621 204.789C63.9411 207.262 43.0471 193.408 36.7651 171.892C34.4881 164.095 34.7161 156.146 35.5421 148.21C36.4231 139.73 38.9411 131.689 42.8721 124.102C43.4351 123.018 43.4241 122.199 42.7201 121.149C36.6841 112.141 34.3421 102.19 35.1921 91.4485C35.6471 85.7074 37.0521 80.2163 39.6751 75.0725C47.3641 60.0052 64.2451 47.2181 86.8541 49.3415C106.734 51.2069 125.147 68.223 128.021 87.3595C128.166 88.32 128.438 89.2626 128.756 90.6795C129.232 88.1136 129.576 85.9961 130.021 83.8985C133.724 66.5133 150.875 48.3215 175.185 48.0962C199.825 47.87 218.072 67.0452 221.515 84.854C222.97 92.3803 222.717 99.8995 221.517 107.416C220.33 114.894 218.083 122.168 214.845 129.022C214.129 130.539 214.203 131.632 215.12 133.041C220.427 141.201 222.769 150.159 222.469 159.887C221.841 180.185 207.372 198.388 187.467 203.149C159.677 209.794 138.374 193.303 131.205 173.351C130.035 170.103 129.482 166.713 128.795 162.841H128.794ZM179.283 127.179C179.58 126.031 180.476 125.344 181.12 124.494C188.088 115.306 191.753 105.043 190.935 93.4866C190.339 85.0525 183.348 79.1109 174.885 79.4255C166.416 79.74 160.035 86.2204 159.915 94.6287C159.906 95.3173 159.948 96.0069 159.905 96.6906C159.322 105.652 154.339 110.56 146.788 111.108C145.409 111.208 144.026 111.33 142.645 111.334C132.845 111.356 123.046 111.352 113.245 111.343C108.965 111.339 104.721 111.802 100.645 113.05C81.6181 118.874 70.5231 131.785 66.8491 151.028C66.1211 154.835 65.4661 158.786 66.7241 162.697C68.5291 168.306 71.8941 172.478 77.8501 173.873C84.0231 175.318 89.4001 173.719 93.6721 168.907C96.4331 165.797 97.3041 162.101 97.5101 158.044C98.0441 147.611 103.77 142.396 113.32 142.474C127.969 142.595 142.62 142.5 157.271 142.511C159.871 142.512 159.895 142.546 159.908 145.098C159.933 149.812 159.787 154.532 159.97 159.24C160.268 166.927 167.084 173.316 174.986 173.541C183.134 173.772 190.397 167.792 190.928 159.986C191.386 153.229 191.357 146.431 190.91 139.669C190.564 134.435 187.71 130.704 182.874 128.539C181.714 128.021 180.494 127.633 179.283 127.179ZM87.4511 111.319C90.6021 111.319 93.1741 111.291 95.7441 111.332C97.0181 111.352 97.4901 110.808 97.4801 109.569C97.4381 104.664 97.6931 99.7437 97.3781 94.8569C96.9621 88.4103 93.5071 83.7497 87.4581 81.399C81.2561 78.9889 75.5801 80.3641 70.7801 84.9096C65.9591 89.4769 65.3161 95.0623 67.0031 101.175C68.5531 106.793 72.2131 109.984 77.9711 110.948C81.3151 111.507 84.6781 111.239 87.4511 111.319Z" fill="white"/>
</g>
<defs>
<clipPath id="clip0_1_2">
<rect width="257" height="256" fill="white"/>
</clipPath>
</defs>
</svg>
